G04 #@! TF.GenerationSoftware,KiCad,Pcbnew,(5.1.6)-1*
G04 #@! TF.CreationDate,2020-05-27T17:34:02-07:00*
G04 #@! TF.ProjectId,MKRShield_v1,4d4b5253-6869-4656-9c64-5f76312e6b69,0.1*
G04 #@! TF.SameCoordinates,Original*
G04 #@! TF.FileFunction,Copper,L2,Inr*
G04 #@! TF.FilePolarity,Positive*
%FSLAX46Y46*%
G04 Gerber Fmt 4.6, Leading zero omitted, Abs format (unit mm)*
G04 Created by KiCad (PCBNEW (5.1.6)-1) date 2020-05-27 17:34:02*
%MOMM*%
%LPD*%
G01*
G04 APERTURE LIST*
G04 #@! TA.AperFunction,Profile*
%ADD10C,0.150000*%
G04 #@! TD*
G04 #@! TA.AperFunction,EtchedComponent*
%ADD11C,0.100000*%
G04 #@! TD*
G04 #@! TA.AperFunction,ViaPad*
%ADD12O,1.600000X1.600000*%
G04 #@! TD*
G04 #@! TA.AperFunction,ViaPad*
%ADD13C,1.600000*%
G04 #@! TD*
G04 #@! TA.AperFunction,ViaPad*
%ADD14C,1.650000*%
G04 #@! TD*
G04 #@! TA.AperFunction,ViaPad*
%ADD15R,1.650000X1.650000*%
G04 #@! TD*
G04 #@! TA.AperFunction,ViaPad*
%ADD16C,1.755000*%
G04 #@! TD*
G04 #@! TA.AperFunction,ViaPad*
%ADD17C,1.950000*%
G04 #@! TD*
G04 #@! TA.AperFunction,ViaPad*
%ADD18R,1.950000X1.950000*%
G04 #@! TD*
G04 #@! TA.AperFunction,ViaPad*
%ADD19C,1.541000*%
G04 #@! TD*
G04 #@! TA.AperFunction,NonConductor*
%ADD20C,0.254000*%
G04 #@! TD*
G04 APERTURE END LIST*
D10*
X180687479Y-117503600D02*
X116937479Y-117503600D01*
X114687479Y-115253600D02*
X114687479Y-94753600D01*
X116937479Y-92503600D02*
X180687479Y-92503600D01*
X114687479Y-115253600D02*
G75*
G03*
X116937479Y-117503600I2250000J0D01*
G01*
X116937479Y-92503600D02*
G75*
G03*
X114687479Y-94753600I0J-2250000D01*
G01*
X180687479Y-117503600D02*
G75*
G03*
X182287479Y-115253600I-325000J1925000D01*
G01*
X180687479Y-92503600D02*
G75*
G02*
X182287479Y-94753600I-325000J-1925000D01*
G01*
X182287479Y-115253600D02*
X182287479Y-94753600D01*
D11*
G04 #@! TO.C,U$5*
X118143979Y-115253600D02*
G75*
G03*
X118143979Y-115253600I-1206500J0D01*
G01*
G04 #@! TO.C,U$6*
X118143979Y-94753600D02*
G75*
G03*
X118143979Y-94753600I-1206500J0D01*
G01*
G04 #@! TO.C,U$7*
X175143979Y-94753600D02*
G75*
G03*
X175143979Y-94753600I-1206500J0D01*
G01*
G04 #@! TO.C,U$8*
X175143979Y-115253600D02*
G75*
G03*
X175143979Y-115253600I-1206500J0D01*
G01*
G04 #@! TD*
D12*
G04 #@! TO.N,Net-(IC1-Pad2)*
G04 #@! TO.C,Sensor_SDA1*
X140970000Y-99060000D03*
D13*
G04 #@! TO.N,Net-(IC1-Pad3)*
X140970000Y-104140000D03*
G04 #@! TD*
D12*
G04 #@! TO.N,Net-(IC1-Pad2)*
G04 #@! TO.C,Sensor_SCL1*
X144780000Y-104140000D03*
D13*
G04 #@! TO.N,Net-(IC1-Pad4)*
X144780000Y-99060000D03*
G04 #@! TD*
D12*
G04 #@! TO.N,GND*
G04 #@! TO.C,5k1*
X144780000Y-106680000D03*
D13*
G04 #@! TO.N,Net-(5k1-Pad1)*
X144780000Y-111760000D03*
G04 #@! TD*
D14*
G04 #@! TO.N,Net-(J1-Pad11)*
G04 #@! TO.C,J3*
X154940000Y-104140000D03*
G04 #@! TO.N,GND*
X154940000Y-101600000D03*
D15*
G04 #@! TO.N,Net-(IC1-Pad2)*
X154940000Y-99060000D03*
G04 #@! TD*
D16*
G04 #@! TO.N,Net-(5k1-Pad1)*
G04 #@! TO.C,IC2*
X130810000Y-114300000D03*
G04 #@! TO.N,Net-(IC1-Pad2)*
X128270000Y-114300000D03*
G04 #@! TD*
D17*
G04 #@! TO.N,Net-(J4-Pad5)*
G04 #@! TO.C,J4*
X162560000Y-99060000D03*
G04 #@! TO.N,Net-(J2-Pad4)*
X162560000Y-101600000D03*
G04 #@! TO.N,Net-(J2-Pad3)*
X162560000Y-104140000D03*
G04 #@! TO.N,Net-(J1-Pad13)*
X162560000Y-106680000D03*
D18*
G04 #@! TO.N,Net-(J1-Pad12)*
X162560000Y-109220000D03*
G04 #@! TD*
D19*
G04 #@! TO.N,Net-(IC1-Pad8)*
G04 #@! TO.C,IC1*
X117350000Y-106680000D03*
G04 #@! TO.N,Net-(IC1-Pad7)*
X117350000Y-104140000D03*
G04 #@! TO.N,Net-(IC1-Pad6)*
X117350000Y-101600000D03*
G04 #@! TO.N,Net-(IC1-Pad5)*
X117350000Y-99060000D03*
G04 #@! TO.N,Net-(IC1-Pad4)*
X133350000Y-99060000D03*
G04 #@! TO.N,Net-(IC1-Pad3)*
X133350000Y-101600000D03*
G04 #@! TO.N,Net-(IC1-Pad2)*
X133350000Y-104140000D03*
G04 #@! TO.N,GND*
X133350000Y-106680000D03*
G04 #@! TD*
D15*
G04 #@! TO.N,Net-(J1-Pad1)*
G04 #@! TO.C,J1*
X136690000Y-115150000D03*
D14*
G04 #@! TO.N,Net-(J1-Pad2)*
X139230000Y-115150000D03*
G04 #@! TO.N,Net-(J1-Pad3)*
X141770000Y-115150000D03*
G04 #@! TO.N,Net-(J1-Pad4)*
X144310000Y-115150000D03*
G04 #@! TO.N,Net-(J1-Pad5)*
X146850000Y-115150000D03*
G04 #@! TO.N,Net-(J1-Pad6)*
X149390000Y-115150000D03*
G04 #@! TO.N,Net-(J1-Pad7)*
X151930000Y-115150000D03*
G04 #@! TO.N,Net-(J1-Pad8)*
X154470000Y-115150000D03*
G04 #@! TO.N,Net-(J1-Pad9)*
X157010000Y-115150000D03*
G04 #@! TO.N,Net-(5k1-Pad1)*
X159550000Y-115150000D03*
G04 #@! TO.N,Net-(J1-Pad11)*
X162090000Y-115150000D03*
G04 #@! TO.N,Net-(J1-Pad12)*
X164630000Y-115150000D03*
G04 #@! TO.N,Net-(J1-Pad13)*
X167170000Y-115150000D03*
G04 #@! TO.N,Net-(J1-Pad14)*
X169710000Y-115150000D03*
G04 #@! TD*
G04 #@! TO.N,Net-(J2-Pad14)*
G04 #@! TO.C,J2*
X136740000Y-94850000D03*
G04 #@! TO.N,Net-(J2-Pad13)*
X139280000Y-94850000D03*
G04 #@! TO.N,Net-(IC1-Pad2)*
X141820000Y-94850000D03*
G04 #@! TO.N,GND*
X144360000Y-94850000D03*
G04 #@! TO.N,/RESET*
X146900000Y-94850000D03*
G04 #@! TO.N,Net-(J2-Pad9)*
X149440000Y-94850000D03*
G04 #@! TO.N,Net-(J2-Pad8)*
X151980000Y-94850000D03*
G04 #@! TO.N,Net-(IC1-Pad4)*
X154520000Y-94850000D03*
G04 #@! TO.N,Net-(IC1-Pad3)*
X157060000Y-94850000D03*
G04 #@! TO.N,Net-(J2-Pad5)*
X159600000Y-94850000D03*
G04 #@! TO.N,Net-(J2-Pad4)*
X162140000Y-94850000D03*
G04 #@! TO.N,Net-(J2-Pad3)*
X164680000Y-94850000D03*
G04 #@! TO.N,Net-(J2-Pad2)*
X167220000Y-94850000D03*
D15*
G04 #@! TO.N,Net-(J2-Pad1)*
X169760000Y-94850000D03*
G04 #@! TD*
D20*
G36*
X135360479Y-96503600D02*
G01*
X135362919Y-96528376D01*
X135370146Y-96552201D01*
X135381882Y-96574157D01*
X135397676Y-96593403D01*
X135416922Y-96609197D01*
X135438878Y-96620933D01*
X135462703Y-96628160D01*
X135487479Y-96630600D01*
X142787479Y-96630600D01*
X142812255Y-96628160D01*
X142836080Y-96620933D01*
X142858036Y-96609197D01*
X142877282Y-96593403D01*
X142893076Y-96574157D01*
X142904812Y-96552201D01*
X142912039Y-96528376D01*
X142914479Y-96503600D01*
X142914479Y-94743728D01*
X143281000Y-94743728D01*
X143281000Y-94956272D01*
X143322465Y-95164733D01*
X143403802Y-95361098D01*
X143521886Y-95537823D01*
X143672177Y-95688114D01*
X143848902Y-95806198D01*
X144045267Y-95887535D01*
X144253728Y-95929000D01*
X144466272Y-95929000D01*
X144674733Y-95887535D01*
X144871098Y-95806198D01*
X145047823Y-95688114D01*
X145198114Y-95537823D01*
X145316198Y-95361098D01*
X145397535Y-95164733D01*
X145439000Y-94956272D01*
X145439000Y-94743728D01*
X145397535Y-94535267D01*
X145316198Y-94338902D01*
X145198114Y-94162177D01*
X145047823Y-94011886D01*
X144871098Y-93893802D01*
X144674733Y-93812465D01*
X144466272Y-93771000D01*
X144253728Y-93771000D01*
X144045267Y-93812465D01*
X143848902Y-93893802D01*
X143672177Y-94011886D01*
X143521886Y-94162177D01*
X143403802Y-94338902D01*
X143322465Y-94535267D01*
X143281000Y-94743728D01*
X142914479Y-94743728D01*
X142914479Y-92705600D01*
X145860479Y-92705600D01*
X145860479Y-94545251D01*
X145821000Y-94743728D01*
X145821000Y-94956272D01*
X145860479Y-95154749D01*
X145860479Y-96103600D01*
X145862919Y-96128376D01*
X145870146Y-96152201D01*
X145881882Y-96174157D01*
X145897676Y-96193403D01*
X145916922Y-96209197D01*
X145938878Y-96220933D01*
X145962703Y-96228160D01*
X145987479Y-96230600D01*
X168085479Y-96230600D01*
X168085479Y-113776600D01*
X135487479Y-113776600D01*
X135462703Y-113779040D01*
X135438878Y-113786267D01*
X135416922Y-113798003D01*
X135397676Y-113813797D01*
X135381882Y-113833043D01*
X135370146Y-113854999D01*
X135362919Y-113878824D01*
X135360479Y-113903600D01*
X135360479Y-117301600D01*
X119314479Y-117301600D01*
X119314479Y-114188557D01*
X127138500Y-114188557D01*
X127138500Y-114411443D01*
X127181983Y-114630046D01*
X127267278Y-114835966D01*
X127391106Y-115021289D01*
X127548711Y-115178894D01*
X127734034Y-115302722D01*
X127939954Y-115388017D01*
X128158557Y-115431500D01*
X128381443Y-115431500D01*
X128600046Y-115388017D01*
X128805966Y-115302722D01*
X128991289Y-115178894D01*
X129148894Y-115021289D01*
X129272722Y-114835966D01*
X129358017Y-114630046D01*
X129401500Y-114411443D01*
X129401500Y-114188557D01*
X129678500Y-114188557D01*
X129678500Y-114411443D01*
X129721983Y-114630046D01*
X129807278Y-114835966D01*
X129931106Y-115021289D01*
X130088711Y-115178894D01*
X130274034Y-115302722D01*
X130479954Y-115388017D01*
X130698557Y-115431500D01*
X130921443Y-115431500D01*
X131140046Y-115388017D01*
X131345966Y-115302722D01*
X131531289Y-115178894D01*
X131688894Y-115021289D01*
X131812722Y-114835966D01*
X131898017Y-114630046D01*
X131941500Y-114411443D01*
X131941500Y-114188557D01*
X131898017Y-113969954D01*
X131812722Y-113764034D01*
X131688894Y-113578711D01*
X131531289Y-113421106D01*
X131345966Y-113297278D01*
X131140046Y-113211983D01*
X130921443Y-113168500D01*
X130698557Y-113168500D01*
X130479954Y-113211983D01*
X130274034Y-113297278D01*
X130088711Y-113421106D01*
X129931106Y-113578711D01*
X129807278Y-113764034D01*
X129721983Y-113969954D01*
X129678500Y-114188557D01*
X129401500Y-114188557D01*
X129358017Y-113969954D01*
X129272722Y-113764034D01*
X129148894Y-113578711D01*
X128991289Y-113421106D01*
X128805966Y-113297278D01*
X128600046Y-113211983D01*
X128381443Y-113168500D01*
X128158557Y-113168500D01*
X127939954Y-113211983D01*
X127734034Y-113297278D01*
X127548711Y-113421106D01*
X127391106Y-113578711D01*
X127267278Y-113764034D01*
X127181983Y-113969954D01*
X127138500Y-114188557D01*
X119314479Y-114188557D01*
X119314479Y-113003600D01*
X119312039Y-112978824D01*
X119304812Y-112954999D01*
X119293076Y-112933043D01*
X119277282Y-112913797D01*
X119258036Y-112898003D01*
X119236080Y-112886267D01*
X119212255Y-112879040D01*
X119187479Y-112876600D01*
X114889479Y-112876600D01*
X114889479Y-111656190D01*
X143726000Y-111656190D01*
X143726000Y-111863810D01*
X143766504Y-112067441D01*
X143845957Y-112259256D01*
X143961305Y-112431886D01*
X144108114Y-112578695D01*
X144280744Y-112694043D01*
X144472559Y-112773496D01*
X144676190Y-112814000D01*
X144883810Y-112814000D01*
X145087441Y-112773496D01*
X145279256Y-112694043D01*
X145451886Y-112578695D01*
X145598695Y-112431886D01*
X145714043Y-112259256D01*
X145793496Y-112067441D01*
X145834000Y-111863810D01*
X145834000Y-111656190D01*
X145793496Y-111452559D01*
X145714043Y-111260744D01*
X145598695Y-111088114D01*
X145451886Y-110941305D01*
X145279256Y-110825957D01*
X145087441Y-110746504D01*
X144883810Y-110706000D01*
X144676190Y-110706000D01*
X144472559Y-110746504D01*
X144280744Y-110825957D01*
X144108114Y-110941305D01*
X143961305Y-111088114D01*
X143845957Y-111260744D01*
X143766504Y-111452559D01*
X143726000Y-111656190D01*
X114889479Y-111656190D01*
X114889479Y-108245000D01*
X161329772Y-108245000D01*
X161329772Y-110195000D01*
X161334676Y-110244793D01*
X161349200Y-110292672D01*
X161372786Y-110336797D01*
X161404527Y-110375473D01*
X161443203Y-110407214D01*
X161487328Y-110430800D01*
X161535207Y-110445324D01*
X161585000Y-110450228D01*
X163535000Y-110450228D01*
X163584793Y-110445324D01*
X163632672Y-110430800D01*
X163676797Y-110407214D01*
X163715473Y-110375473D01*
X163747214Y-110336797D01*
X163770800Y-110292672D01*
X163785324Y-110244793D01*
X163790228Y-110195000D01*
X163790228Y-108245000D01*
X163785324Y-108195207D01*
X163770800Y-108147328D01*
X163747214Y-108103203D01*
X163715473Y-108064527D01*
X163676797Y-108032786D01*
X163632672Y-108009200D01*
X163584793Y-107994676D01*
X163535000Y-107989772D01*
X161585000Y-107989772D01*
X161535207Y-107994676D01*
X161487328Y-108009200D01*
X161443203Y-108032786D01*
X161404527Y-108064527D01*
X161372786Y-108103203D01*
X161349200Y-108147328D01*
X161334676Y-108195207D01*
X161329772Y-108245000D01*
X114889479Y-108245000D01*
X114889479Y-106579096D01*
X116325500Y-106579096D01*
X116325500Y-106780904D01*
X116364871Y-106978836D01*
X116442100Y-107165283D01*
X116554219Y-107333081D01*
X116696919Y-107475781D01*
X116864717Y-107587900D01*
X117051164Y-107665129D01*
X117249096Y-107704500D01*
X117450904Y-107704500D01*
X117648836Y-107665129D01*
X117835283Y-107587900D01*
X118003081Y-107475781D01*
X118145781Y-107333081D01*
X118257900Y-107165283D01*
X118335129Y-106978836D01*
X118374500Y-106780904D01*
X118374500Y-106579096D01*
X132325500Y-106579096D01*
X132325500Y-106780904D01*
X132364871Y-106978836D01*
X132442100Y-107165283D01*
X132554219Y-107333081D01*
X132696919Y-107475781D01*
X132864717Y-107587900D01*
X133051164Y-107665129D01*
X133249096Y-107704500D01*
X133450904Y-107704500D01*
X133648836Y-107665129D01*
X133835283Y-107587900D01*
X134003081Y-107475781D01*
X134145781Y-107333081D01*
X134257900Y-107165283D01*
X134335129Y-106978836D01*
X134374500Y-106780904D01*
X134374500Y-106579096D01*
X134373922Y-106576190D01*
X143726000Y-106576190D01*
X143726000Y-106783810D01*
X143766504Y-106987441D01*
X143845957Y-107179256D01*
X143961305Y-107351886D01*
X144108114Y-107498695D01*
X144280744Y-107614043D01*
X144472559Y-107693496D01*
X144676190Y-107734000D01*
X144883810Y-107734000D01*
X145087441Y-107693496D01*
X145279256Y-107614043D01*
X145451886Y-107498695D01*
X145598695Y-107351886D01*
X145714043Y-107179256D01*
X145793496Y-106987441D01*
X145834000Y-106783810D01*
X145834000Y-106576190D01*
X145830572Y-106558954D01*
X161331000Y-106558954D01*
X161331000Y-106801046D01*
X161378229Y-107038486D01*
X161470874Y-107262150D01*
X161605373Y-107463442D01*
X161776558Y-107634627D01*
X161977850Y-107769126D01*
X162201514Y-107861771D01*
X162438954Y-107909000D01*
X162681046Y-107909000D01*
X162918486Y-107861771D01*
X163142150Y-107769126D01*
X163343442Y-107634627D01*
X163514627Y-107463442D01*
X163649126Y-107262150D01*
X163741771Y-107038486D01*
X163789000Y-106801046D01*
X163789000Y-106558954D01*
X163741771Y-106321514D01*
X163649126Y-106097850D01*
X163514627Y-105896558D01*
X163343442Y-105725373D01*
X163142150Y-105590874D01*
X162918486Y-105498229D01*
X162681046Y-105451000D01*
X162438954Y-105451000D01*
X162201514Y-105498229D01*
X161977850Y-105590874D01*
X161776558Y-105725373D01*
X161605373Y-105896558D01*
X161470874Y-106097850D01*
X161378229Y-106321514D01*
X161331000Y-106558954D01*
X145830572Y-106558954D01*
X145793496Y-106372559D01*
X145714043Y-106180744D01*
X145598695Y-106008114D01*
X145451886Y-105861305D01*
X145279256Y-105745957D01*
X145087441Y-105666504D01*
X144883810Y-105626000D01*
X144676190Y-105626000D01*
X144472559Y-105666504D01*
X144280744Y-105745957D01*
X144108114Y-105861305D01*
X143961305Y-106008114D01*
X143845957Y-106180744D01*
X143766504Y-106372559D01*
X143726000Y-106576190D01*
X134373922Y-106576190D01*
X134335129Y-106381164D01*
X134257900Y-106194717D01*
X134145781Y-106026919D01*
X134003081Y-105884219D01*
X133835283Y-105772100D01*
X133648836Y-105694871D01*
X133450904Y-105655500D01*
X133249096Y-105655500D01*
X133051164Y-105694871D01*
X132864717Y-105772100D01*
X132696919Y-105884219D01*
X132554219Y-106026919D01*
X132442100Y-106194717D01*
X132364871Y-106381164D01*
X132325500Y-106579096D01*
X118374500Y-106579096D01*
X118335129Y-106381164D01*
X118257900Y-106194717D01*
X118145781Y-106026919D01*
X118003081Y-105884219D01*
X117835283Y-105772100D01*
X117648836Y-105694871D01*
X117450904Y-105655500D01*
X117249096Y-105655500D01*
X117051164Y-105694871D01*
X116864717Y-105772100D01*
X116696919Y-105884219D01*
X116554219Y-106026919D01*
X116442100Y-106194717D01*
X116364871Y-106381164D01*
X116325500Y-106579096D01*
X114889479Y-106579096D01*
X114889479Y-104039096D01*
X116325500Y-104039096D01*
X116325500Y-104240904D01*
X116364871Y-104438836D01*
X116442100Y-104625283D01*
X116554219Y-104793081D01*
X116696919Y-104935781D01*
X116864717Y-105047900D01*
X117051164Y-105125129D01*
X117249096Y-105164500D01*
X117450904Y-105164500D01*
X117648836Y-105125129D01*
X117835283Y-105047900D01*
X118003081Y-104935781D01*
X118145781Y-104793081D01*
X118257900Y-104625283D01*
X118335129Y-104438836D01*
X118374500Y-104240904D01*
X118374500Y-104039096D01*
X132325500Y-104039096D01*
X132325500Y-104240904D01*
X132364871Y-104438836D01*
X132442100Y-104625283D01*
X132554219Y-104793081D01*
X132696919Y-104935781D01*
X132864717Y-105047900D01*
X133051164Y-105125129D01*
X133249096Y-105164500D01*
X133450904Y-105164500D01*
X133648836Y-105125129D01*
X133835283Y-105047900D01*
X134003081Y-104935781D01*
X134145781Y-104793081D01*
X134257900Y-104625283D01*
X134335129Y-104438836D01*
X134374500Y-104240904D01*
X134374500Y-104039096D01*
X134373922Y-104036190D01*
X139916000Y-104036190D01*
X139916000Y-104243810D01*
X139956504Y-104447441D01*
X140035957Y-104639256D01*
X140151305Y-104811886D01*
X140298114Y-104958695D01*
X140470744Y-105074043D01*
X140662559Y-105153496D01*
X140866190Y-105194000D01*
X141073810Y-105194000D01*
X141277441Y-105153496D01*
X141469256Y-105074043D01*
X141641886Y-104958695D01*
X141788695Y-104811886D01*
X141904043Y-104639256D01*
X141983496Y-104447441D01*
X142024000Y-104243810D01*
X142024000Y-104036190D01*
X143726000Y-104036190D01*
X143726000Y-104243810D01*
X143766504Y-104447441D01*
X143845957Y-104639256D01*
X143961305Y-104811886D01*
X144108114Y-104958695D01*
X144280744Y-105074043D01*
X144472559Y-105153496D01*
X144676190Y-105194000D01*
X144883810Y-105194000D01*
X145087441Y-105153496D01*
X145279256Y-105074043D01*
X145451886Y-104958695D01*
X145598695Y-104811886D01*
X145714043Y-104639256D01*
X145793496Y-104447441D01*
X145834000Y-104243810D01*
X145834000Y-104036190D01*
X145833511Y-104033728D01*
X153861000Y-104033728D01*
X153861000Y-104246272D01*
X153902465Y-104454733D01*
X153983802Y-104651098D01*
X154101886Y-104827823D01*
X154252177Y-104978114D01*
X154428902Y-105096198D01*
X154625267Y-105177535D01*
X154833728Y-105219000D01*
X155046272Y-105219000D01*
X155254733Y-105177535D01*
X155451098Y-105096198D01*
X155627823Y-104978114D01*
X155778114Y-104827823D01*
X155896198Y-104651098D01*
X155977535Y-104454733D01*
X156019000Y-104246272D01*
X156019000Y-104033728D01*
X156016062Y-104018954D01*
X161331000Y-104018954D01*
X161331000Y-104261046D01*
X161378229Y-104498486D01*
X161470874Y-104722150D01*
X161605373Y-104923442D01*
X161776558Y-105094627D01*
X161977850Y-105229126D01*
X162201514Y-105321771D01*
X162438954Y-105369000D01*
X162681046Y-105369000D01*
X162918486Y-105321771D01*
X163142150Y-105229126D01*
X163343442Y-105094627D01*
X163514627Y-104923442D01*
X163649126Y-104722150D01*
X163741771Y-104498486D01*
X163789000Y-104261046D01*
X163789000Y-104018954D01*
X163741771Y-103781514D01*
X163649126Y-103557850D01*
X163514627Y-103356558D01*
X163343442Y-103185373D01*
X163142150Y-103050874D01*
X162918486Y-102958229D01*
X162681046Y-102911000D01*
X162438954Y-102911000D01*
X162201514Y-102958229D01*
X161977850Y-103050874D01*
X161776558Y-103185373D01*
X161605373Y-103356558D01*
X161470874Y-103557850D01*
X161378229Y-103781514D01*
X161331000Y-104018954D01*
X156016062Y-104018954D01*
X155977535Y-103825267D01*
X155896198Y-103628902D01*
X155778114Y-103452177D01*
X155627823Y-103301886D01*
X155451098Y-103183802D01*
X155254733Y-103102465D01*
X155046272Y-103061000D01*
X154833728Y-103061000D01*
X154625267Y-103102465D01*
X154428902Y-103183802D01*
X154252177Y-103301886D01*
X154101886Y-103452177D01*
X153983802Y-103628902D01*
X153902465Y-103825267D01*
X153861000Y-104033728D01*
X145833511Y-104033728D01*
X145793496Y-103832559D01*
X145714043Y-103640744D01*
X145598695Y-103468114D01*
X145451886Y-103321305D01*
X145279256Y-103205957D01*
X145087441Y-103126504D01*
X144883810Y-103086000D01*
X144676190Y-103086000D01*
X144472559Y-103126504D01*
X144280744Y-103205957D01*
X144108114Y-103321305D01*
X143961305Y-103468114D01*
X143845957Y-103640744D01*
X143766504Y-103832559D01*
X143726000Y-104036190D01*
X142024000Y-104036190D01*
X141983496Y-103832559D01*
X141904043Y-103640744D01*
X141788695Y-103468114D01*
X141641886Y-103321305D01*
X141469256Y-103205957D01*
X141277441Y-103126504D01*
X141073810Y-103086000D01*
X140866190Y-103086000D01*
X140662559Y-103126504D01*
X140470744Y-103205957D01*
X140298114Y-103321305D01*
X140151305Y-103468114D01*
X140035957Y-103640744D01*
X139956504Y-103832559D01*
X139916000Y-104036190D01*
X134373922Y-104036190D01*
X134335129Y-103841164D01*
X134257900Y-103654717D01*
X134145781Y-103486919D01*
X134003081Y-103344219D01*
X133835283Y-103232100D01*
X133648836Y-103154871D01*
X133450904Y-103115500D01*
X133249096Y-103115500D01*
X133051164Y-103154871D01*
X132864717Y-103232100D01*
X132696919Y-103344219D01*
X132554219Y-103486919D01*
X132442100Y-103654717D01*
X132364871Y-103841164D01*
X132325500Y-104039096D01*
X118374500Y-104039096D01*
X118335129Y-103841164D01*
X118257900Y-103654717D01*
X118145781Y-103486919D01*
X118003081Y-103344219D01*
X117835283Y-103232100D01*
X117648836Y-103154871D01*
X117450904Y-103115500D01*
X117249096Y-103115500D01*
X117051164Y-103154871D01*
X116864717Y-103232100D01*
X116696919Y-103344219D01*
X116554219Y-103486919D01*
X116442100Y-103654717D01*
X116364871Y-103841164D01*
X116325500Y-104039096D01*
X114889479Y-104039096D01*
X114889479Y-101499096D01*
X116325500Y-101499096D01*
X116325500Y-101700904D01*
X116364871Y-101898836D01*
X116442100Y-102085283D01*
X116554219Y-102253081D01*
X116696919Y-102395781D01*
X116864717Y-102507900D01*
X117051164Y-102585129D01*
X117249096Y-102624500D01*
X117450904Y-102624500D01*
X117648836Y-102585129D01*
X117835283Y-102507900D01*
X118003081Y-102395781D01*
X118145781Y-102253081D01*
X118257900Y-102085283D01*
X118335129Y-101898836D01*
X118374500Y-101700904D01*
X118374500Y-101499096D01*
X132325500Y-101499096D01*
X132325500Y-101700904D01*
X132364871Y-101898836D01*
X132442100Y-102085283D01*
X132554219Y-102253081D01*
X132696919Y-102395781D01*
X132864717Y-102507900D01*
X133051164Y-102585129D01*
X133249096Y-102624500D01*
X133450904Y-102624500D01*
X133648836Y-102585129D01*
X133835283Y-102507900D01*
X134003081Y-102395781D01*
X134145781Y-102253081D01*
X134257900Y-102085283D01*
X134335129Y-101898836D01*
X134374500Y-101700904D01*
X134374500Y-101499096D01*
X134373433Y-101493728D01*
X153861000Y-101493728D01*
X153861000Y-101706272D01*
X153902465Y-101914733D01*
X153983802Y-102111098D01*
X154101886Y-102287823D01*
X154252177Y-102438114D01*
X154428902Y-102556198D01*
X154625267Y-102637535D01*
X154833728Y-102679000D01*
X155046272Y-102679000D01*
X155254733Y-102637535D01*
X155451098Y-102556198D01*
X155627823Y-102438114D01*
X155778114Y-102287823D01*
X155896198Y-102111098D01*
X155977535Y-101914733D01*
X156019000Y-101706272D01*
X156019000Y-101493728D01*
X156016062Y-101478954D01*
X161331000Y-101478954D01*
X161331000Y-101721046D01*
X161378229Y-101958486D01*
X161470874Y-102182150D01*
X161605373Y-102383442D01*
X161776558Y-102554627D01*
X161977850Y-102689126D01*
X162201514Y-102781771D01*
X162438954Y-102829000D01*
X162681046Y-102829000D01*
X162918486Y-102781771D01*
X163142150Y-102689126D01*
X163343442Y-102554627D01*
X163514627Y-102383442D01*
X163649126Y-102182150D01*
X163741771Y-101958486D01*
X163789000Y-101721046D01*
X163789000Y-101478954D01*
X163741771Y-101241514D01*
X163649126Y-101017850D01*
X163514627Y-100816558D01*
X163343442Y-100645373D01*
X163142150Y-100510874D01*
X162918486Y-100418229D01*
X162681046Y-100371000D01*
X162438954Y-100371000D01*
X162201514Y-100418229D01*
X161977850Y-100510874D01*
X161776558Y-100645373D01*
X161605373Y-100816558D01*
X161470874Y-101017850D01*
X161378229Y-101241514D01*
X161331000Y-101478954D01*
X156016062Y-101478954D01*
X155977535Y-101285267D01*
X155896198Y-101088902D01*
X155778114Y-100912177D01*
X155627823Y-100761886D01*
X155451098Y-100643802D01*
X155254733Y-100562465D01*
X155046272Y-100521000D01*
X154833728Y-100521000D01*
X154625267Y-100562465D01*
X154428902Y-100643802D01*
X154252177Y-100761886D01*
X154101886Y-100912177D01*
X153983802Y-101088902D01*
X153902465Y-101285267D01*
X153861000Y-101493728D01*
X134373433Y-101493728D01*
X134335129Y-101301164D01*
X134257900Y-101114717D01*
X134145781Y-100946919D01*
X134003081Y-100804219D01*
X133835283Y-100692100D01*
X133648836Y-100614871D01*
X133450904Y-100575500D01*
X133249096Y-100575500D01*
X133051164Y-100614871D01*
X132864717Y-100692100D01*
X132696919Y-100804219D01*
X132554219Y-100946919D01*
X132442100Y-101114717D01*
X132364871Y-101301164D01*
X132325500Y-101499096D01*
X118374500Y-101499096D01*
X118335129Y-101301164D01*
X118257900Y-101114717D01*
X118145781Y-100946919D01*
X118003081Y-100804219D01*
X117835283Y-100692100D01*
X117648836Y-100614871D01*
X117450904Y-100575500D01*
X117249096Y-100575500D01*
X117051164Y-100614871D01*
X116864717Y-100692100D01*
X116696919Y-100804219D01*
X116554219Y-100946919D01*
X116442100Y-101114717D01*
X116364871Y-101301164D01*
X116325500Y-101499096D01*
X114889479Y-101499096D01*
X114889479Y-98959096D01*
X116325500Y-98959096D01*
X116325500Y-99160904D01*
X116364871Y-99358836D01*
X116442100Y-99545283D01*
X116554219Y-99713081D01*
X116696919Y-99855781D01*
X116864717Y-99967900D01*
X117051164Y-100045129D01*
X117249096Y-100084500D01*
X117450904Y-100084500D01*
X117648836Y-100045129D01*
X117835283Y-99967900D01*
X118003081Y-99855781D01*
X118145781Y-99713081D01*
X118257900Y-99545283D01*
X118335129Y-99358836D01*
X118374500Y-99160904D01*
X118374500Y-98959096D01*
X132325500Y-98959096D01*
X132325500Y-99160904D01*
X132364871Y-99358836D01*
X132442100Y-99545283D01*
X132554219Y-99713081D01*
X132696919Y-99855781D01*
X132864717Y-99967900D01*
X133051164Y-100045129D01*
X133249096Y-100084500D01*
X133450904Y-100084500D01*
X133648836Y-100045129D01*
X133835283Y-99967900D01*
X134003081Y-99855781D01*
X134145781Y-99713081D01*
X134257900Y-99545283D01*
X134335129Y-99358836D01*
X134374500Y-99160904D01*
X134374500Y-98959096D01*
X134373922Y-98956190D01*
X139916000Y-98956190D01*
X139916000Y-99163810D01*
X139956504Y-99367441D01*
X140035957Y-99559256D01*
X140151305Y-99731886D01*
X140298114Y-99878695D01*
X140470744Y-99994043D01*
X140662559Y-100073496D01*
X140866190Y-100114000D01*
X141073810Y-100114000D01*
X141277441Y-100073496D01*
X141469256Y-99994043D01*
X141641886Y-99878695D01*
X141788695Y-99731886D01*
X141904043Y-99559256D01*
X141983496Y-99367441D01*
X142024000Y-99163810D01*
X142024000Y-98956190D01*
X143726000Y-98956190D01*
X143726000Y-99163810D01*
X143766504Y-99367441D01*
X143845957Y-99559256D01*
X143961305Y-99731886D01*
X144108114Y-99878695D01*
X144280744Y-99994043D01*
X144472559Y-100073496D01*
X144676190Y-100114000D01*
X144883810Y-100114000D01*
X145087441Y-100073496D01*
X145279256Y-99994043D01*
X145451886Y-99878695D01*
X145598695Y-99731886D01*
X145714043Y-99559256D01*
X145793496Y-99367441D01*
X145834000Y-99163810D01*
X145834000Y-98956190D01*
X145793496Y-98752559D01*
X145714043Y-98560744D01*
X145598695Y-98388114D01*
X145451886Y-98241305D01*
X145442450Y-98235000D01*
X153859772Y-98235000D01*
X153859772Y-99885000D01*
X153864676Y-99934793D01*
X153879200Y-99982672D01*
X153902786Y-100026797D01*
X153934527Y-100065473D01*
X153973203Y-100097214D01*
X154017328Y-100120800D01*
X154065207Y-100135324D01*
X154115000Y-100140228D01*
X155765000Y-100140228D01*
X155814793Y-100135324D01*
X155862672Y-100120800D01*
X155906797Y-100097214D01*
X155945473Y-100065473D01*
X155977214Y-100026797D01*
X156000800Y-99982672D01*
X156015324Y-99934793D01*
X156020228Y-99885000D01*
X156020228Y-98938954D01*
X161331000Y-98938954D01*
X161331000Y-99181046D01*
X161378229Y-99418486D01*
X161470874Y-99642150D01*
X161605373Y-99843442D01*
X161776558Y-100014627D01*
X161977850Y-100149126D01*
X162201514Y-100241771D01*
X162438954Y-100289000D01*
X162681046Y-100289000D01*
X162918486Y-100241771D01*
X163142150Y-100149126D01*
X163343442Y-100014627D01*
X163514627Y-99843442D01*
X163649126Y-99642150D01*
X163741771Y-99418486D01*
X163789000Y-99181046D01*
X163789000Y-98938954D01*
X163741771Y-98701514D01*
X163649126Y-98477850D01*
X163514627Y-98276558D01*
X163343442Y-98105373D01*
X163142150Y-97970874D01*
X162918486Y-97878229D01*
X162681046Y-97831000D01*
X162438954Y-97831000D01*
X162201514Y-97878229D01*
X161977850Y-97970874D01*
X161776558Y-98105373D01*
X161605373Y-98276558D01*
X161470874Y-98477850D01*
X161378229Y-98701514D01*
X161331000Y-98938954D01*
X156020228Y-98938954D01*
X156020228Y-98235000D01*
X156015324Y-98185207D01*
X156000800Y-98137328D01*
X155977214Y-98093203D01*
X155945473Y-98054527D01*
X155906797Y-98022786D01*
X155862672Y-97999200D01*
X155814793Y-97984676D01*
X155765000Y-97979772D01*
X154115000Y-97979772D01*
X154065207Y-97984676D01*
X154017328Y-97999200D01*
X153973203Y-98022786D01*
X153934527Y-98054527D01*
X153902786Y-98093203D01*
X153879200Y-98137328D01*
X153864676Y-98185207D01*
X153859772Y-98235000D01*
X145442450Y-98235000D01*
X145279256Y-98125957D01*
X145087441Y-98046504D01*
X144883810Y-98006000D01*
X144676190Y-98006000D01*
X144472559Y-98046504D01*
X144280744Y-98125957D01*
X144108114Y-98241305D01*
X143961305Y-98388114D01*
X143845957Y-98560744D01*
X143766504Y-98752559D01*
X143726000Y-98956190D01*
X142024000Y-98956190D01*
X141983496Y-98752559D01*
X141904043Y-98560744D01*
X141788695Y-98388114D01*
X141641886Y-98241305D01*
X141469256Y-98125957D01*
X141277441Y-98046504D01*
X141073810Y-98006000D01*
X140866190Y-98006000D01*
X140662559Y-98046504D01*
X140470744Y-98125957D01*
X140298114Y-98241305D01*
X140151305Y-98388114D01*
X140035957Y-98560744D01*
X139956504Y-98752559D01*
X139916000Y-98956190D01*
X134373922Y-98956190D01*
X134335129Y-98761164D01*
X134257900Y-98574717D01*
X134145781Y-98406919D01*
X134003081Y-98264219D01*
X133835283Y-98152100D01*
X133648836Y-98074871D01*
X133450904Y-98035500D01*
X133249096Y-98035500D01*
X133051164Y-98074871D01*
X132864717Y-98152100D01*
X132696919Y-98264219D01*
X132554219Y-98406919D01*
X132442100Y-98574717D01*
X132364871Y-98761164D01*
X132325500Y-98959096D01*
X118374500Y-98959096D01*
X118335129Y-98761164D01*
X118257900Y-98574717D01*
X118145781Y-98406919D01*
X118003081Y-98264219D01*
X117835283Y-98152100D01*
X117648836Y-98074871D01*
X117450904Y-98035500D01*
X117249096Y-98035500D01*
X117051164Y-98074871D01*
X116864717Y-98152100D01*
X116696919Y-98264219D01*
X116554219Y-98406919D01*
X116442100Y-98574717D01*
X116364871Y-98761164D01*
X116325500Y-98959096D01*
X114889479Y-98959096D01*
X114889479Y-97080600D01*
X119137479Y-97080600D01*
X119162255Y-97078160D01*
X119186080Y-97070933D01*
X119208036Y-97059197D01*
X119227282Y-97043403D01*
X119243076Y-97024157D01*
X119254812Y-97002201D01*
X119262039Y-96978376D01*
X119264479Y-96953600D01*
X119264479Y-92705600D01*
X135360479Y-92705600D01*
X135360479Y-96503600D01*
G37*
X135360479Y-96503600D02*
X135362919Y-96528376D01*
X135370146Y-96552201D01*
X135381882Y-96574157D01*
X135397676Y-96593403D01*
X135416922Y-96609197D01*
X135438878Y-96620933D01*
X135462703Y-96628160D01*
X135487479Y-96630600D01*
X142787479Y-96630600D01*
X142812255Y-96628160D01*
X142836080Y-96620933D01*
X142858036Y-96609197D01*
X142877282Y-96593403D01*
X142893076Y-96574157D01*
X142904812Y-96552201D01*
X142912039Y-96528376D01*
X142914479Y-96503600D01*
X142914479Y-94743728D01*
X143281000Y-94743728D01*
X143281000Y-94956272D01*
X143322465Y-95164733D01*
X143403802Y-95361098D01*
X143521886Y-95537823D01*
X143672177Y-95688114D01*
X143848902Y-95806198D01*
X144045267Y-95887535D01*
X144253728Y-95929000D01*
X144466272Y-95929000D01*
X144674733Y-95887535D01*
X144871098Y-95806198D01*
X145047823Y-95688114D01*
X145198114Y-95537823D01*
X145316198Y-95361098D01*
X145397535Y-95164733D01*
X145439000Y-94956272D01*
X145439000Y-94743728D01*
X145397535Y-94535267D01*
X145316198Y-94338902D01*
X145198114Y-94162177D01*
X145047823Y-94011886D01*
X144871098Y-93893802D01*
X144674733Y-93812465D01*
X144466272Y-93771000D01*
X144253728Y-93771000D01*
X144045267Y-93812465D01*
X143848902Y-93893802D01*
X143672177Y-94011886D01*
X143521886Y-94162177D01*
X143403802Y-94338902D01*
X143322465Y-94535267D01*
X143281000Y-94743728D01*
X142914479Y-94743728D01*
X142914479Y-92705600D01*
X145860479Y-92705600D01*
X145860479Y-94545251D01*
X145821000Y-94743728D01*
X145821000Y-94956272D01*
X145860479Y-95154749D01*
X145860479Y-96103600D01*
X145862919Y-96128376D01*
X145870146Y-96152201D01*
X145881882Y-96174157D01*
X145897676Y-96193403D01*
X145916922Y-96209197D01*
X145938878Y-96220933D01*
X145962703Y-96228160D01*
X145987479Y-96230600D01*
X168085479Y-96230600D01*
X168085479Y-113776600D01*
X135487479Y-113776600D01*
X135462703Y-113779040D01*
X135438878Y-113786267D01*
X135416922Y-113798003D01*
X135397676Y-113813797D01*
X135381882Y-113833043D01*
X135370146Y-113854999D01*
X135362919Y-113878824D01*
X135360479Y-113903600D01*
X135360479Y-117301600D01*
X119314479Y-117301600D01*
X119314479Y-114188557D01*
X127138500Y-114188557D01*
X127138500Y-114411443D01*
X127181983Y-114630046D01*
X127267278Y-114835966D01*
X127391106Y-115021289D01*
X127548711Y-115178894D01*
X127734034Y-115302722D01*
X127939954Y-115388017D01*
X128158557Y-115431500D01*
X128381443Y-115431500D01*
X128600046Y-115388017D01*
X128805966Y-115302722D01*
X128991289Y-115178894D01*
X129148894Y-115021289D01*
X129272722Y-114835966D01*
X129358017Y-114630046D01*
X129401500Y-114411443D01*
X129401500Y-114188557D01*
X129678500Y-114188557D01*
X129678500Y-114411443D01*
X129721983Y-114630046D01*
X129807278Y-114835966D01*
X129931106Y-115021289D01*
X130088711Y-115178894D01*
X130274034Y-115302722D01*
X130479954Y-115388017D01*
X130698557Y-115431500D01*
X130921443Y-115431500D01*
X131140046Y-115388017D01*
X131345966Y-115302722D01*
X131531289Y-115178894D01*
X131688894Y-115021289D01*
X131812722Y-114835966D01*
X131898017Y-114630046D01*
X131941500Y-114411443D01*
X131941500Y-114188557D01*
X131898017Y-113969954D01*
X131812722Y-113764034D01*
X131688894Y-113578711D01*
X131531289Y-113421106D01*
X131345966Y-113297278D01*
X131140046Y-113211983D01*
X130921443Y-113168500D01*
X130698557Y-113168500D01*
X130479954Y-113211983D01*
X130274034Y-113297278D01*
X130088711Y-113421106D01*
X129931106Y-113578711D01*
X129807278Y-113764034D01*
X129721983Y-113969954D01*
X129678500Y-114188557D01*
X129401500Y-114188557D01*
X129358017Y-113969954D01*
X129272722Y-113764034D01*
X129148894Y-113578711D01*
X128991289Y-113421106D01*
X128805966Y-113297278D01*
X128600046Y-113211983D01*
X128381443Y-113168500D01*
X128158557Y-113168500D01*
X127939954Y-113211983D01*
X127734034Y-113297278D01*
X127548711Y-113421106D01*
X127391106Y-113578711D01*
X127267278Y-113764034D01*
X127181983Y-113969954D01*
X127138500Y-114188557D01*
X119314479Y-114188557D01*
X119314479Y-113003600D01*
X119312039Y-112978824D01*
X119304812Y-112954999D01*
X119293076Y-112933043D01*
X119277282Y-112913797D01*
X119258036Y-112898003D01*
X119236080Y-112886267D01*
X119212255Y-112879040D01*
X119187479Y-112876600D01*
X114889479Y-112876600D01*
X114889479Y-111656190D01*
X143726000Y-111656190D01*
X143726000Y-111863810D01*
X143766504Y-112067441D01*
X143845957Y-112259256D01*
X143961305Y-112431886D01*
X144108114Y-112578695D01*
X144280744Y-112694043D01*
X144472559Y-112773496D01*
X144676190Y-112814000D01*
X144883810Y-112814000D01*
X145087441Y-112773496D01*
X145279256Y-112694043D01*
X145451886Y-112578695D01*
X145598695Y-112431886D01*
X145714043Y-112259256D01*
X145793496Y-112067441D01*
X145834000Y-111863810D01*
X145834000Y-111656190D01*
X145793496Y-111452559D01*
X145714043Y-111260744D01*
X145598695Y-111088114D01*
X145451886Y-110941305D01*
X145279256Y-110825957D01*
X145087441Y-110746504D01*
X144883810Y-110706000D01*
X144676190Y-110706000D01*
X144472559Y-110746504D01*
X144280744Y-110825957D01*
X144108114Y-110941305D01*
X143961305Y-111088114D01*
X143845957Y-111260744D01*
X143766504Y-111452559D01*
X143726000Y-111656190D01*
X114889479Y-111656190D01*
X114889479Y-108245000D01*
X161329772Y-108245000D01*
X161329772Y-110195000D01*
X161334676Y-110244793D01*
X161349200Y-110292672D01*
X161372786Y-110336797D01*
X161404527Y-110375473D01*
X161443203Y-110407214D01*
X161487328Y-110430800D01*
X161535207Y-110445324D01*
X161585000Y-110450228D01*
X163535000Y-110450228D01*
X163584793Y-110445324D01*
X163632672Y-110430800D01*
X163676797Y-110407214D01*
X163715473Y-110375473D01*
X163747214Y-110336797D01*
X163770800Y-110292672D01*
X163785324Y-110244793D01*
X163790228Y-110195000D01*
X163790228Y-108245000D01*
X163785324Y-108195207D01*
X163770800Y-108147328D01*
X163747214Y-108103203D01*
X163715473Y-108064527D01*
X163676797Y-108032786D01*
X163632672Y-108009200D01*
X163584793Y-107994676D01*
X163535000Y-107989772D01*
X161585000Y-107989772D01*
X161535207Y-107994676D01*
X161487328Y-108009200D01*
X161443203Y-108032786D01*
X161404527Y-108064527D01*
X161372786Y-108103203D01*
X161349200Y-108147328D01*
X161334676Y-108195207D01*
X161329772Y-108245000D01*
X114889479Y-108245000D01*
X114889479Y-106579096D01*
X116325500Y-106579096D01*
X116325500Y-106780904D01*
X116364871Y-106978836D01*
X116442100Y-107165283D01*
X116554219Y-107333081D01*
X116696919Y-107475781D01*
X116864717Y-107587900D01*
X117051164Y-107665129D01*
X117249096Y-107704500D01*
X117450904Y-107704500D01*
X117648836Y-107665129D01*
X117835283Y-107587900D01*
X118003081Y-107475781D01*
X118145781Y-107333081D01*
X118257900Y-107165283D01*
X118335129Y-106978836D01*
X118374500Y-106780904D01*
X118374500Y-106579096D01*
X132325500Y-106579096D01*
X132325500Y-106780904D01*
X132364871Y-106978836D01*
X132442100Y-107165283D01*
X132554219Y-107333081D01*
X132696919Y-107475781D01*
X132864717Y-107587900D01*
X133051164Y-107665129D01*
X133249096Y-107704500D01*
X133450904Y-107704500D01*
X133648836Y-107665129D01*
X133835283Y-107587900D01*
X134003081Y-107475781D01*
X134145781Y-107333081D01*
X134257900Y-107165283D01*
X134335129Y-106978836D01*
X134374500Y-106780904D01*
X134374500Y-106579096D01*
X134373922Y-106576190D01*
X143726000Y-106576190D01*
X143726000Y-106783810D01*
X143766504Y-106987441D01*
X143845957Y-107179256D01*
X143961305Y-107351886D01*
X144108114Y-107498695D01*
X144280744Y-107614043D01*
X144472559Y-107693496D01*
X144676190Y-107734000D01*
X144883810Y-107734000D01*
X145087441Y-107693496D01*
X145279256Y-107614043D01*
X145451886Y-107498695D01*
X145598695Y-107351886D01*
X145714043Y-107179256D01*
X145793496Y-106987441D01*
X145834000Y-106783810D01*
X145834000Y-106576190D01*
X145830572Y-106558954D01*
X161331000Y-106558954D01*
X161331000Y-106801046D01*
X161378229Y-107038486D01*
X161470874Y-107262150D01*
X161605373Y-107463442D01*
X161776558Y-107634627D01*
X161977850Y-107769126D01*
X162201514Y-107861771D01*
X162438954Y-107909000D01*
X162681046Y-107909000D01*
X162918486Y-107861771D01*
X163142150Y-107769126D01*
X163343442Y-107634627D01*
X163514627Y-107463442D01*
X163649126Y-107262150D01*
X163741771Y-107038486D01*
X163789000Y-106801046D01*
X163789000Y-106558954D01*
X163741771Y-106321514D01*
X163649126Y-106097850D01*
X163514627Y-105896558D01*
X163343442Y-105725373D01*
X163142150Y-105590874D01*
X162918486Y-105498229D01*
X162681046Y-105451000D01*
X162438954Y-105451000D01*
X162201514Y-105498229D01*
X161977850Y-105590874D01*
X161776558Y-105725373D01*
X161605373Y-105896558D01*
X161470874Y-106097850D01*
X161378229Y-106321514D01*
X161331000Y-106558954D01*
X145830572Y-106558954D01*
X145793496Y-106372559D01*
X145714043Y-106180744D01*
X145598695Y-106008114D01*
X145451886Y-105861305D01*
X145279256Y-105745957D01*
X145087441Y-105666504D01*
X144883810Y-105626000D01*
X144676190Y-105626000D01*
X144472559Y-105666504D01*
X144280744Y-105745957D01*
X144108114Y-105861305D01*
X143961305Y-106008114D01*
X143845957Y-106180744D01*
X143766504Y-106372559D01*
X143726000Y-106576190D01*
X134373922Y-106576190D01*
X134335129Y-106381164D01*
X134257900Y-106194717D01*
X134145781Y-106026919D01*
X134003081Y-105884219D01*
X133835283Y-105772100D01*
X133648836Y-105694871D01*
X133450904Y-105655500D01*
X133249096Y-105655500D01*
X133051164Y-105694871D01*
X132864717Y-105772100D01*
X132696919Y-105884219D01*
X132554219Y-106026919D01*
X132442100Y-106194717D01*
X132364871Y-106381164D01*
X132325500Y-106579096D01*
X118374500Y-106579096D01*
X118335129Y-106381164D01*
X118257900Y-106194717D01*
X118145781Y-106026919D01*
X118003081Y-105884219D01*
X117835283Y-105772100D01*
X117648836Y-105694871D01*
X117450904Y-105655500D01*
X117249096Y-105655500D01*
X117051164Y-105694871D01*
X116864717Y-105772100D01*
X116696919Y-105884219D01*
X116554219Y-106026919D01*
X116442100Y-106194717D01*
X116364871Y-106381164D01*
X116325500Y-106579096D01*
X114889479Y-106579096D01*
X114889479Y-104039096D01*
X116325500Y-104039096D01*
X116325500Y-104240904D01*
X116364871Y-104438836D01*
X116442100Y-104625283D01*
X116554219Y-104793081D01*
X116696919Y-104935781D01*
X116864717Y-105047900D01*
X117051164Y-105125129D01*
X117249096Y-105164500D01*
X117450904Y-105164500D01*
X117648836Y-105125129D01*
X117835283Y-105047900D01*
X118003081Y-104935781D01*
X118145781Y-104793081D01*
X118257900Y-104625283D01*
X118335129Y-104438836D01*
X118374500Y-104240904D01*
X118374500Y-104039096D01*
X132325500Y-104039096D01*
X132325500Y-104240904D01*
X132364871Y-104438836D01*
X132442100Y-104625283D01*
X132554219Y-104793081D01*
X132696919Y-104935781D01*
X132864717Y-105047900D01*
X133051164Y-105125129D01*
X133249096Y-105164500D01*
X133450904Y-105164500D01*
X133648836Y-105125129D01*
X133835283Y-105047900D01*
X134003081Y-104935781D01*
X134145781Y-104793081D01*
X134257900Y-104625283D01*
X134335129Y-104438836D01*
X134374500Y-104240904D01*
X134374500Y-104039096D01*
X134373922Y-104036190D01*
X139916000Y-104036190D01*
X139916000Y-104243810D01*
X139956504Y-104447441D01*
X140035957Y-104639256D01*
X140151305Y-104811886D01*
X140298114Y-104958695D01*
X140470744Y-105074043D01*
X140662559Y-105153496D01*
X140866190Y-105194000D01*
X141073810Y-105194000D01*
X141277441Y-105153496D01*
X141469256Y-105074043D01*
X141641886Y-104958695D01*
X141788695Y-104811886D01*
X141904043Y-104639256D01*
X141983496Y-104447441D01*
X142024000Y-104243810D01*
X142024000Y-104036190D01*
X143726000Y-104036190D01*
X143726000Y-104243810D01*
X143766504Y-104447441D01*
X143845957Y-104639256D01*
X143961305Y-104811886D01*
X144108114Y-104958695D01*
X144280744Y-105074043D01*
X144472559Y-105153496D01*
X144676190Y-105194000D01*
X144883810Y-105194000D01*
X145087441Y-105153496D01*
X145279256Y-105074043D01*
X145451886Y-104958695D01*
X145598695Y-104811886D01*
X145714043Y-104639256D01*
X145793496Y-104447441D01*
X145834000Y-104243810D01*
X145834000Y-104036190D01*
X145833511Y-104033728D01*
X153861000Y-104033728D01*
X153861000Y-104246272D01*
X153902465Y-104454733D01*
X153983802Y-104651098D01*
X154101886Y-104827823D01*
X154252177Y-104978114D01*
X154428902Y-105096198D01*
X154625267Y-105177535D01*
X154833728Y-105219000D01*
X155046272Y-105219000D01*
X155254733Y-105177535D01*
X155451098Y-105096198D01*
X155627823Y-104978114D01*
X155778114Y-104827823D01*
X155896198Y-104651098D01*
X155977535Y-104454733D01*
X156019000Y-104246272D01*
X156019000Y-104033728D01*
X156016062Y-104018954D01*
X161331000Y-104018954D01*
X161331000Y-104261046D01*
X161378229Y-104498486D01*
X161470874Y-104722150D01*
X161605373Y-104923442D01*
X161776558Y-105094627D01*
X161977850Y-105229126D01*
X162201514Y-105321771D01*
X162438954Y-105369000D01*
X162681046Y-105369000D01*
X162918486Y-105321771D01*
X163142150Y-105229126D01*
X163343442Y-105094627D01*
X163514627Y-104923442D01*
X163649126Y-104722150D01*
X163741771Y-104498486D01*
X163789000Y-104261046D01*
X163789000Y-104018954D01*
X163741771Y-103781514D01*
X163649126Y-103557850D01*
X163514627Y-103356558D01*
X163343442Y-103185373D01*
X163142150Y-103050874D01*
X162918486Y-102958229D01*
X162681046Y-102911000D01*
X162438954Y-102911000D01*
X162201514Y-102958229D01*
X161977850Y-103050874D01*
X161776558Y-103185373D01*
X161605373Y-103356558D01*
X161470874Y-103557850D01*
X161378229Y-103781514D01*
X161331000Y-104018954D01*
X156016062Y-104018954D01*
X155977535Y-103825267D01*
X155896198Y-103628902D01*
X155778114Y-103452177D01*
X155627823Y-103301886D01*
X155451098Y-103183802D01*
X155254733Y-103102465D01*
X155046272Y-103061000D01*
X154833728Y-103061000D01*
X154625267Y-103102465D01*
X154428902Y-103183802D01*
X154252177Y-103301886D01*
X154101886Y-103452177D01*
X153983802Y-103628902D01*
X153902465Y-103825267D01*
X153861000Y-104033728D01*
X145833511Y-104033728D01*
X145793496Y-103832559D01*
X145714043Y-103640744D01*
X145598695Y-103468114D01*
X145451886Y-103321305D01*
X145279256Y-103205957D01*
X145087441Y-103126504D01*
X144883810Y-103086000D01*
X144676190Y-103086000D01*
X144472559Y-103126504D01*
X144280744Y-103205957D01*
X144108114Y-103321305D01*
X143961305Y-103468114D01*
X143845957Y-103640744D01*
X143766504Y-103832559D01*
X143726000Y-104036190D01*
X142024000Y-104036190D01*
X141983496Y-103832559D01*
X141904043Y-103640744D01*
X141788695Y-103468114D01*
X141641886Y-103321305D01*
X141469256Y-103205957D01*
X141277441Y-103126504D01*
X141073810Y-103086000D01*
X140866190Y-103086000D01*
X140662559Y-103126504D01*
X140470744Y-103205957D01*
X140298114Y-103321305D01*
X140151305Y-103468114D01*
X140035957Y-103640744D01*
X139956504Y-103832559D01*
X139916000Y-104036190D01*
X134373922Y-104036190D01*
X134335129Y-103841164D01*
X134257900Y-103654717D01*
X134145781Y-103486919D01*
X134003081Y-103344219D01*
X133835283Y-103232100D01*
X133648836Y-103154871D01*
X133450904Y-103115500D01*
X133249096Y-103115500D01*
X133051164Y-103154871D01*
X132864717Y-103232100D01*
X132696919Y-103344219D01*
X132554219Y-103486919D01*
X132442100Y-103654717D01*
X132364871Y-103841164D01*
X132325500Y-104039096D01*
X118374500Y-104039096D01*
X118335129Y-103841164D01*
X118257900Y-103654717D01*
X118145781Y-103486919D01*
X118003081Y-103344219D01*
X117835283Y-103232100D01*
X117648836Y-103154871D01*
X117450904Y-103115500D01*
X117249096Y-103115500D01*
X117051164Y-103154871D01*
X116864717Y-103232100D01*
X116696919Y-103344219D01*
X116554219Y-103486919D01*
X116442100Y-103654717D01*
X116364871Y-103841164D01*
X116325500Y-104039096D01*
X114889479Y-104039096D01*
X114889479Y-101499096D01*
X116325500Y-101499096D01*
X116325500Y-101700904D01*
X116364871Y-101898836D01*
X116442100Y-102085283D01*
X116554219Y-102253081D01*
X116696919Y-102395781D01*
X116864717Y-102507900D01*
X117051164Y-102585129D01*
X117249096Y-102624500D01*
X117450904Y-102624500D01*
X117648836Y-102585129D01*
X117835283Y-102507900D01*
X118003081Y-102395781D01*
X118145781Y-102253081D01*
X118257900Y-102085283D01*
X118335129Y-101898836D01*
X118374500Y-101700904D01*
X118374500Y-101499096D01*
X132325500Y-101499096D01*
X132325500Y-101700904D01*
X132364871Y-101898836D01*
X132442100Y-102085283D01*
X132554219Y-102253081D01*
X132696919Y-102395781D01*
X132864717Y-102507900D01*
X133051164Y-102585129D01*
X133249096Y-102624500D01*
X133450904Y-102624500D01*
X133648836Y-102585129D01*
X133835283Y-102507900D01*
X134003081Y-102395781D01*
X134145781Y-102253081D01*
X134257900Y-102085283D01*
X134335129Y-101898836D01*
X134374500Y-101700904D01*
X134374500Y-101499096D01*
X134373433Y-101493728D01*
X153861000Y-101493728D01*
X153861000Y-101706272D01*
X153902465Y-101914733D01*
X153983802Y-102111098D01*
X154101886Y-102287823D01*
X154252177Y-102438114D01*
X154428902Y-102556198D01*
X154625267Y-102637535D01*
X154833728Y-102679000D01*
X155046272Y-102679000D01*
X155254733Y-102637535D01*
X155451098Y-102556198D01*
X155627823Y-102438114D01*
X155778114Y-102287823D01*
X155896198Y-102111098D01*
X155977535Y-101914733D01*
X156019000Y-101706272D01*
X156019000Y-101493728D01*
X156016062Y-101478954D01*
X161331000Y-101478954D01*
X161331000Y-101721046D01*
X161378229Y-101958486D01*
X161470874Y-102182150D01*
X161605373Y-102383442D01*
X161776558Y-102554627D01*
X161977850Y-102689126D01*
X162201514Y-102781771D01*
X162438954Y-102829000D01*
X162681046Y-102829000D01*
X162918486Y-102781771D01*
X163142150Y-102689126D01*
X163343442Y-102554627D01*
X163514627Y-102383442D01*
X163649126Y-102182150D01*
X163741771Y-101958486D01*
X163789000Y-101721046D01*
X163789000Y-101478954D01*
X163741771Y-101241514D01*
X163649126Y-101017850D01*
X163514627Y-100816558D01*
X163343442Y-100645373D01*
X163142150Y-100510874D01*
X162918486Y-100418229D01*
X162681046Y-100371000D01*
X162438954Y-100371000D01*
X162201514Y-100418229D01*
X161977850Y-100510874D01*
X161776558Y-100645373D01*
X161605373Y-100816558D01*
X161470874Y-101017850D01*
X161378229Y-101241514D01*
X161331000Y-101478954D01*
X156016062Y-101478954D01*
X155977535Y-101285267D01*
X155896198Y-101088902D01*
X155778114Y-100912177D01*
X155627823Y-100761886D01*
X155451098Y-100643802D01*
X155254733Y-100562465D01*
X155046272Y-100521000D01*
X154833728Y-100521000D01*
X154625267Y-100562465D01*
X154428902Y-100643802D01*
X154252177Y-100761886D01*
X154101886Y-100912177D01*
X153983802Y-101088902D01*
X153902465Y-101285267D01*
X153861000Y-101493728D01*
X134373433Y-101493728D01*
X134335129Y-101301164D01*
X134257900Y-101114717D01*
X134145781Y-100946919D01*
X134003081Y-100804219D01*
X133835283Y-100692100D01*
X133648836Y-100614871D01*
X133450904Y-100575500D01*
X133249096Y-100575500D01*
X133051164Y-100614871D01*
X132864717Y-100692100D01*
X132696919Y-100804219D01*
X132554219Y-100946919D01*
X132442100Y-101114717D01*
X132364871Y-101301164D01*
X132325500Y-101499096D01*
X118374500Y-101499096D01*
X118335129Y-101301164D01*
X118257900Y-101114717D01*
X118145781Y-100946919D01*
X118003081Y-100804219D01*
X117835283Y-100692100D01*
X117648836Y-100614871D01*
X117450904Y-100575500D01*
X117249096Y-100575500D01*
X117051164Y-100614871D01*
X116864717Y-100692100D01*
X116696919Y-100804219D01*
X116554219Y-100946919D01*
X116442100Y-101114717D01*
X116364871Y-101301164D01*
X116325500Y-101499096D01*
X114889479Y-101499096D01*
X114889479Y-98959096D01*
X116325500Y-98959096D01*
X116325500Y-99160904D01*
X116364871Y-99358836D01*
X116442100Y-99545283D01*
X116554219Y-99713081D01*
X116696919Y-99855781D01*
X116864717Y-99967900D01*
X117051164Y-100045129D01*
X117249096Y-100084500D01*
X117450904Y-100084500D01*
X117648836Y-100045129D01*
X117835283Y-99967900D01*
X118003081Y-99855781D01*
X118145781Y-99713081D01*
X118257900Y-99545283D01*
X118335129Y-99358836D01*
X118374500Y-99160904D01*
X118374500Y-98959096D01*
X132325500Y-98959096D01*
X132325500Y-99160904D01*
X132364871Y-99358836D01*
X132442100Y-99545283D01*
X132554219Y-99713081D01*
X132696919Y-99855781D01*
X132864717Y-99967900D01*
X133051164Y-100045129D01*
X133249096Y-100084500D01*
X133450904Y-100084500D01*
X133648836Y-100045129D01*
X133835283Y-99967900D01*
X134003081Y-99855781D01*
X134145781Y-99713081D01*
X134257900Y-99545283D01*
X134335129Y-99358836D01*
X134374500Y-99160904D01*
X134374500Y-98959096D01*
X134373922Y-98956190D01*
X139916000Y-98956190D01*
X139916000Y-99163810D01*
X139956504Y-99367441D01*
X140035957Y-99559256D01*
X140151305Y-99731886D01*
X140298114Y-99878695D01*
X140470744Y-99994043D01*
X140662559Y-100073496D01*
X140866190Y-100114000D01*
X141073810Y-100114000D01*
X141277441Y-100073496D01*
X141469256Y-99994043D01*
X141641886Y-99878695D01*
X141788695Y-99731886D01*
X141904043Y-99559256D01*
X141983496Y-99367441D01*
X142024000Y-99163810D01*
X142024000Y-98956190D01*
X143726000Y-98956190D01*
X143726000Y-99163810D01*
X143766504Y-99367441D01*
X143845957Y-99559256D01*
X143961305Y-99731886D01*
X144108114Y-99878695D01*
X144280744Y-99994043D01*
X144472559Y-100073496D01*
X144676190Y-100114000D01*
X144883810Y-100114000D01*
X145087441Y-100073496D01*
X145279256Y-99994043D01*
X145451886Y-99878695D01*
X145598695Y-99731886D01*
X145714043Y-99559256D01*
X145793496Y-99367441D01*
X145834000Y-99163810D01*
X145834000Y-98956190D01*
X145793496Y-98752559D01*
X145714043Y-98560744D01*
X145598695Y-98388114D01*
X145451886Y-98241305D01*
X145442450Y-98235000D01*
X153859772Y-98235000D01*
X153859772Y-99885000D01*
X153864676Y-99934793D01*
X153879200Y-99982672D01*
X153902786Y-100026797D01*
X153934527Y-100065473D01*
X153973203Y-100097214D01*
X154017328Y-100120800D01*
X154065207Y-100135324D01*
X154115000Y-100140228D01*
X155765000Y-100140228D01*
X155814793Y-100135324D01*
X155862672Y-100120800D01*
X155906797Y-100097214D01*
X155945473Y-100065473D01*
X155977214Y-100026797D01*
X156000800Y-99982672D01*
X156015324Y-99934793D01*
X156020228Y-99885000D01*
X156020228Y-98938954D01*
X161331000Y-98938954D01*
X161331000Y-99181046D01*
X161378229Y-99418486D01*
X161470874Y-99642150D01*
X161605373Y-99843442D01*
X161776558Y-100014627D01*
X161977850Y-100149126D01*
X162201514Y-100241771D01*
X162438954Y-100289000D01*
X162681046Y-100289000D01*
X162918486Y-100241771D01*
X163142150Y-100149126D01*
X163343442Y-100014627D01*
X163514627Y-99843442D01*
X163649126Y-99642150D01*
X163741771Y-99418486D01*
X163789000Y-99181046D01*
X163789000Y-98938954D01*
X163741771Y-98701514D01*
X163649126Y-98477850D01*
X163514627Y-98276558D01*
X163343442Y-98105373D01*
X163142150Y-97970874D01*
X162918486Y-97878229D01*
X162681046Y-97831000D01*
X162438954Y-97831000D01*
X162201514Y-97878229D01*
X161977850Y-97970874D01*
X161776558Y-98105373D01*
X161605373Y-98276558D01*
X161470874Y-98477850D01*
X161378229Y-98701514D01*
X161331000Y-98938954D01*
X156020228Y-98938954D01*
X156020228Y-98235000D01*
X156015324Y-98185207D01*
X156000800Y-98137328D01*
X155977214Y-98093203D01*
X155945473Y-98054527D01*
X155906797Y-98022786D01*
X155862672Y-97999200D01*
X155814793Y-97984676D01*
X155765000Y-97979772D01*
X154115000Y-97979772D01*
X154065207Y-97984676D01*
X154017328Y-97999200D01*
X153973203Y-98022786D01*
X153934527Y-98054527D01*
X153902786Y-98093203D01*
X153879200Y-98137328D01*
X153864676Y-98185207D01*
X153859772Y-98235000D01*
X145442450Y-98235000D01*
X145279256Y-98125957D01*
X145087441Y-98046504D01*
X144883810Y-98006000D01*
X144676190Y-98006000D01*
X144472559Y-98046504D01*
X144280744Y-98125957D01*
X144108114Y-98241305D01*
X143961305Y-98388114D01*
X143845957Y-98560744D01*
X143766504Y-98752559D01*
X143726000Y-98956190D01*
X142024000Y-98956190D01*
X141983496Y-98752559D01*
X141904043Y-98560744D01*
X141788695Y-98388114D01*
X141641886Y-98241305D01*
X141469256Y-98125957D01*
X141277441Y-98046504D01*
X141073810Y-98006000D01*
X140866190Y-98006000D01*
X140662559Y-98046504D01*
X140470744Y-98125957D01*
X140298114Y-98241305D01*
X140151305Y-98388114D01*
X140035957Y-98560744D01*
X139956504Y-98752559D01*
X139916000Y-98956190D01*
X134373922Y-98956190D01*
X134335129Y-98761164D01*
X134257900Y-98574717D01*
X134145781Y-98406919D01*
X134003081Y-98264219D01*
X133835283Y-98152100D01*
X133648836Y-98074871D01*
X133450904Y-98035500D01*
X133249096Y-98035500D01*
X133051164Y-98074871D01*
X132864717Y-98152100D01*
X132696919Y-98264219D01*
X132554219Y-98406919D01*
X132442100Y-98574717D01*
X132364871Y-98761164D01*
X132325500Y-98959096D01*
X118374500Y-98959096D01*
X118335129Y-98761164D01*
X118257900Y-98574717D01*
X118145781Y-98406919D01*
X118003081Y-98264219D01*
X117835283Y-98152100D01*
X117648836Y-98074871D01*
X117450904Y-98035500D01*
X117249096Y-98035500D01*
X117051164Y-98074871D01*
X116864717Y-98152100D01*
X116696919Y-98264219D01*
X116554219Y-98406919D01*
X116442100Y-98574717D01*
X116364871Y-98761164D01*
X116325500Y-98959096D01*
X114889479Y-98959096D01*
X114889479Y-97080600D01*
X119137479Y-97080600D01*
X119162255Y-97078160D01*
X119186080Y-97070933D01*
X119208036Y-97059197D01*
X119227282Y-97043403D01*
X119243076Y-97024157D01*
X119254812Y-97002201D01*
X119262039Y-96978376D01*
X119264479Y-96953600D01*
X119264479Y-92705600D01*
X135360479Y-92705600D01*
X135360479Y-96503600D01*
M02*
