G04 #@! TF.GenerationSoftware,KiCad,Pcbnew,(5.1.6)-1*
G04 #@! TF.CreationDate,2020-05-27T17:34:02-07:00*
G04 #@! TF.ProjectId,MKRShield_v1,4d4b5253-6869-4656-9c64-5f76312e6b69,0.1*
G04 #@! TF.SameCoordinates,Original*
G04 #@! TF.FileFunction,Copper,L1,Top*
G04 #@! TF.FilePolarity,Positive*
%FSLAX46Y46*%
G04 Gerber Fmt 4.6, Leading zero omitted, Abs format (unit mm)*
G04 Created by KiCad (PCBNEW (5.1.6)-1) date 2020-05-27 17:34:02*
%MOMM*%
%LPD*%
G01*
G04 APERTURE LIST*
G04 #@! TA.AperFunction,Profile*
%ADD10C,0.150000*%
G04 #@! TD*
G04 #@! TA.AperFunction,EtchedComponent*
%ADD11C,0.100000*%
G04 #@! TD*
G04 #@! TA.AperFunction,ComponentPad*
%ADD12O,1.600000X1.600000*%
G04 #@! TD*
G04 #@! TA.AperFunction,ComponentPad*
%ADD13C,1.600000*%
G04 #@! TD*
G04 #@! TA.AperFunction,ComponentPad*
%ADD14C,1.650000*%
G04 #@! TD*
G04 #@! TA.AperFunction,ComponentPad*
%ADD15R,1.650000X1.650000*%
G04 #@! TD*
G04 #@! TA.AperFunction,ComponentPad*
%ADD16C,1.755000*%
G04 #@! TD*
G04 #@! TA.AperFunction,ComponentPad*
%ADD17C,1.950000*%
G04 #@! TD*
G04 #@! TA.AperFunction,ComponentPad*
%ADD18R,1.950000X1.950000*%
G04 #@! TD*
G04 #@! TA.AperFunction,ComponentPad*
%ADD19C,1.541000*%
G04 #@! TD*
G04 #@! TA.AperFunction,Conductor*
%ADD20C,0.250000*%
G04 #@! TD*
G04 APERTURE END LIST*
D10*
X180687479Y-117503600D02*
X116937479Y-117503600D01*
X114687479Y-115253600D02*
X114687479Y-94753600D01*
X116937479Y-92503600D02*
X180687479Y-92503600D01*
X114687479Y-115253600D02*
G75*
G03*
X116937479Y-117503600I2250000J0D01*
G01*
X116937479Y-92503600D02*
G75*
G03*
X114687479Y-94753600I0J-2250000D01*
G01*
X180687479Y-117503600D02*
G75*
G03*
X182287479Y-115253600I-325000J1925000D01*
G01*
X180687479Y-92503600D02*
G75*
G02*
X182287479Y-94753600I-325000J-1925000D01*
G01*
X182287479Y-115253600D02*
X182287479Y-94753600D01*
D11*
G04 #@! TO.C,U$5*
X118143979Y-115253600D02*
G75*
G03*
X118143979Y-115253600I-1206500J0D01*
G01*
G04 #@! TO.C,U$6*
X118143979Y-94753600D02*
G75*
G03*
X118143979Y-94753600I-1206500J0D01*
G01*
G04 #@! TO.C,U$7*
X175143979Y-94753600D02*
G75*
G03*
X175143979Y-94753600I-1206500J0D01*
G01*
G04 #@! TO.C,U$8*
X175143979Y-115253600D02*
G75*
G03*
X175143979Y-115253600I-1206500J0D01*
G01*
G04 #@! TD*
D12*
G04 #@! TO.P,Sensor_SDA1,2*
G04 #@! TO.N,Net-(IC1-Pad2)*
X140970000Y-99060000D03*
D13*
G04 #@! TO.P,Sensor_SDA1,1*
G04 #@! TO.N,Net-(IC1-Pad3)*
X140970000Y-104140000D03*
G04 #@! TD*
D12*
G04 #@! TO.P,Sensor_SCL1,2*
G04 #@! TO.N,Net-(IC1-Pad2)*
X144780000Y-104140000D03*
D13*
G04 #@! TO.P,Sensor_SCL1,1*
G04 #@! TO.N,Net-(IC1-Pad4)*
X144780000Y-99060000D03*
G04 #@! TD*
D12*
G04 #@! TO.P,5k1,2*
G04 #@! TO.N,GND*
X144780000Y-106680000D03*
D13*
G04 #@! TO.P,5k1,1*
G04 #@! TO.N,Net-(5k1-Pad1)*
X144780000Y-111760000D03*
G04 #@! TD*
D14*
G04 #@! TO.P,J3,3*
G04 #@! TO.N,Net-(J1-Pad11)*
X154940000Y-104140000D03*
G04 #@! TO.P,J3,2*
G04 #@! TO.N,GND*
X154940000Y-101600000D03*
D15*
G04 #@! TO.P,J3,1*
G04 #@! TO.N,Net-(IC1-Pad2)*
X154940000Y-99060000D03*
G04 #@! TD*
D16*
G04 #@! TO.P,IC2,1*
G04 #@! TO.N,Net-(5k1-Pad1)*
X130810000Y-114300000D03*
G04 #@! TO.P,IC2,2*
G04 #@! TO.N,Net-(IC1-Pad2)*
X128270000Y-114300000D03*
G04 #@! TD*
D17*
G04 #@! TO.P,J4,5*
G04 #@! TO.N,Net-(J4-Pad5)*
X162560000Y-99060000D03*
G04 #@! TO.P,J4,4*
G04 #@! TO.N,Net-(J2-Pad4)*
X162560000Y-101600000D03*
G04 #@! TO.P,J4,3*
G04 #@! TO.N,Net-(J2-Pad3)*
X162560000Y-104140000D03*
G04 #@! TO.P,J4,2*
G04 #@! TO.N,Net-(J1-Pad13)*
X162560000Y-106680000D03*
D18*
G04 #@! TO.P,J4,1*
G04 #@! TO.N,Net-(J1-Pad12)*
X162560000Y-109220000D03*
G04 #@! TD*
D19*
G04 #@! TO.P,IC1,8*
G04 #@! TO.N,Net-(IC1-Pad8)*
X117350000Y-106680000D03*
G04 #@! TO.P,IC1,7*
G04 #@! TO.N,Net-(IC1-Pad7)*
X117350000Y-104140000D03*
G04 #@! TO.P,IC1,6*
G04 #@! TO.N,Net-(IC1-Pad6)*
X117350000Y-101600000D03*
G04 #@! TO.P,IC1,5*
G04 #@! TO.N,Net-(IC1-Pad5)*
X117350000Y-99060000D03*
G04 #@! TO.P,IC1,4*
G04 #@! TO.N,Net-(IC1-Pad4)*
X133350000Y-99060000D03*
G04 #@! TO.P,IC1,3*
G04 #@! TO.N,Net-(IC1-Pad3)*
X133350000Y-101600000D03*
G04 #@! TO.P,IC1,2*
G04 #@! TO.N,Net-(IC1-Pad2)*
X133350000Y-104140000D03*
G04 #@! TO.P,IC1,1*
G04 #@! TO.N,GND*
X133350000Y-106680000D03*
G04 #@! TD*
D15*
G04 #@! TO.P,J1,1*
G04 #@! TO.N,Net-(J1-Pad1)*
X136690000Y-115150000D03*
D14*
G04 #@! TO.P,J1,2*
G04 #@! TO.N,Net-(J1-Pad2)*
X139230000Y-115150000D03*
G04 #@! TO.P,J1,3*
G04 #@! TO.N,Net-(J1-Pad3)*
X141770000Y-115150000D03*
G04 #@! TO.P,J1,4*
G04 #@! TO.N,Net-(J1-Pad4)*
X144310000Y-115150000D03*
G04 #@! TO.P,J1,5*
G04 #@! TO.N,Net-(J1-Pad5)*
X146850000Y-115150000D03*
G04 #@! TO.P,J1,6*
G04 #@! TO.N,Net-(J1-Pad6)*
X149390000Y-115150000D03*
G04 #@! TO.P,J1,7*
G04 #@! TO.N,Net-(J1-Pad7)*
X151930000Y-115150000D03*
G04 #@! TO.P,J1,8*
G04 #@! TO.N,Net-(J1-Pad8)*
X154470000Y-115150000D03*
G04 #@! TO.P,J1,9*
G04 #@! TO.N,Net-(J1-Pad9)*
X157010000Y-115150000D03*
G04 #@! TO.P,J1,10*
G04 #@! TO.N,Net-(5k1-Pad1)*
X159550000Y-115150000D03*
G04 #@! TO.P,J1,11*
G04 #@! TO.N,Net-(J1-Pad11)*
X162090000Y-115150000D03*
G04 #@! TO.P,J1,12*
G04 #@! TO.N,Net-(J1-Pad12)*
X164630000Y-115150000D03*
G04 #@! TO.P,J1,13*
G04 #@! TO.N,Net-(J1-Pad13)*
X167170000Y-115150000D03*
G04 #@! TO.P,J1,14*
G04 #@! TO.N,Net-(J1-Pad14)*
X169710000Y-115150000D03*
G04 #@! TD*
G04 #@! TO.P,J2,14*
G04 #@! TO.N,Net-(J2-Pad14)*
X136740000Y-94850000D03*
G04 #@! TO.P,J2,13*
G04 #@! TO.N,Net-(J2-Pad13)*
X139280000Y-94850000D03*
G04 #@! TO.P,J2,12*
G04 #@! TO.N,Net-(IC1-Pad2)*
X141820000Y-94850000D03*
G04 #@! TO.P,J2,11*
G04 #@! TO.N,GND*
X144360000Y-94850000D03*
G04 #@! TO.P,J2,10*
G04 #@! TO.N,/RESET*
X146900000Y-94850000D03*
G04 #@! TO.P,J2,9*
G04 #@! TO.N,Net-(J2-Pad9)*
X149440000Y-94850000D03*
G04 #@! TO.P,J2,8*
G04 #@! TO.N,Net-(J2-Pad8)*
X151980000Y-94850000D03*
G04 #@! TO.P,J2,7*
G04 #@! TO.N,Net-(IC1-Pad4)*
X154520000Y-94850000D03*
G04 #@! TO.P,J2,6*
G04 #@! TO.N,Net-(IC1-Pad3)*
X157060000Y-94850000D03*
G04 #@! TO.P,J2,5*
G04 #@! TO.N,Net-(J2-Pad5)*
X159600000Y-94850000D03*
G04 #@! TO.P,J2,4*
G04 #@! TO.N,Net-(J2-Pad4)*
X162140000Y-94850000D03*
G04 #@! TO.P,J2,3*
G04 #@! TO.N,Net-(J2-Pad3)*
X164680000Y-94850000D03*
G04 #@! TO.P,J2,2*
G04 #@! TO.N,Net-(J2-Pad2)*
X167220000Y-94850000D03*
D15*
G04 #@! TO.P,J2,1*
G04 #@! TO.N,Net-(J2-Pad1)*
X169760000Y-94850000D03*
G04 #@! TD*
D20*
G04 #@! TO.N,GND*
X133350000Y-106680000D02*
X146050000Y-106680000D01*
X154940000Y-102546038D02*
X154940000Y-101600000D01*
X150806038Y-106680000D02*
X154940000Y-102546038D01*
X146050000Y-106680000D02*
X150806038Y-106680000D01*
G04 #@! TO.N,Net-(5k1-Pad1)*
X156160000Y-111760000D02*
X159550000Y-115150000D01*
X133350000Y-111760000D02*
X144780000Y-111760000D01*
X130810000Y-114300000D02*
X133350000Y-111760000D01*
X144780000Y-111760000D02*
X156210000Y-111760000D01*
X156210000Y-111810000D02*
X159550000Y-115150000D01*
X156210000Y-111760000D02*
X156210000Y-111810000D01*
G04 #@! TO.N,Net-(IC1-Pad4)*
X150310000Y-99060000D02*
X154520000Y-94850000D01*
X144780000Y-99060000D02*
X150310000Y-99060000D01*
X133727010Y-99437010D02*
X133350000Y-99437010D01*
X134402001Y-100112001D02*
X133727010Y-99437010D01*
X144780000Y-99060000D02*
X143727999Y-100112001D01*
X143727999Y-100112001D02*
X134402001Y-100112001D01*
G04 #@! TO.N,Net-(IC1-Pad3)*
X150310000Y-101600000D02*
X157060000Y-94850000D01*
X143510000Y-101600000D02*
X150310000Y-101600000D01*
X140970000Y-104140000D02*
X143510000Y-101600000D01*
X138430000Y-101600000D02*
X140970000Y-104140000D01*
X133350000Y-101600000D02*
X138430000Y-101600000D01*
G04 #@! TO.N,Net-(IC1-Pad2)*
X133350000Y-104140000D02*
X134402001Y-105192001D01*
X141820000Y-94830000D02*
X141820000Y-94850000D01*
X149860000Y-104140000D02*
X154940000Y-99060000D01*
X141820000Y-98210000D02*
X140970000Y-99060000D01*
X141820000Y-94850000D02*
X141820000Y-98210000D01*
X143727999Y-105192001D02*
X144780000Y-104140000D01*
X144780000Y-104140000D02*
X149860000Y-104140000D01*
X134402001Y-105192001D02*
X143727999Y-105192001D01*
X128270000Y-109220000D02*
X128270000Y-114300000D01*
X133350000Y-104140000D02*
X128270000Y-109220000D01*
G04 #@! TO.N,Net-(J1-Pad12)*
X162560000Y-113080000D02*
X164630000Y-115150000D01*
X162560000Y-109220000D02*
X162560000Y-113080000D01*
G04 #@! TO.N,Net-(J1-Pad13)*
X167170000Y-111290000D02*
X167170000Y-115150000D01*
X162560000Y-106680000D02*
X167170000Y-111290000D01*
G04 #@! TO.N,Net-(J2-Pad4)*
X161315001Y-100355001D02*
X162560000Y-101600000D01*
X161315001Y-95674999D02*
X161315001Y-100355001D01*
X162140000Y-94850000D02*
X161315001Y-95674999D01*
G04 #@! TO.N,Net-(J2-Pad3)*
X164680000Y-102020000D02*
X162560000Y-104140000D01*
X164680000Y-94850000D02*
X164680000Y-102020000D01*
G04 #@! TO.N,Net-(J1-Pad11)*
X154940000Y-108000000D02*
X162090000Y-115150000D01*
X154940000Y-104140000D02*
X154940000Y-108000000D01*
G04 #@! TD*
M02*
