M48
; DRILL file {KiCad (5.1.6)-1} date 05/27/20 17:35:07
; FORMAT={-:-/ absolute / metric / decimal}
; #@! TF.CreationDate,2020-05-27T17:35:07-07:00
; #@! TF.GenerationSoftware,Kicad,Pcbnew,(5.1.6)-1
; #@! TF.FileFunction,Plated,1,4,PTH
FMAT,2
METRIC
T1C0.800
T2C0.991
T3C1.100
T4C1.170
T5C1.300
%
G90
G05
T1
X144.78Y-99.06
X144.78Y-104.14
X140.97Y-99.06
X140.97Y-104.14
X144.78Y-106.68
X144.78Y-111.76
T2
X117.35Y-99.06
X117.35Y-101.6
X117.35Y-104.14
X117.35Y-106.68
X133.35Y-99.06
X133.35Y-101.6
X133.35Y-104.14
X133.35Y-106.68
T3
X136.74Y-94.85
X139.28Y-94.85
X141.82Y-94.85
X144.36Y-94.85
X146.9Y-94.85
X149.44Y-94.85
X151.98Y-94.85
X154.52Y-94.85
X157.06Y-94.85
X159.6Y-94.85
X162.14Y-94.85
X164.68Y-94.85
X167.22Y-94.85
X169.76Y-94.85
X136.69Y-115.15
X139.23Y-115.15
X141.77Y-115.15
X144.31Y-115.15
X146.85Y-115.15
X149.39Y-115.15
X151.93Y-115.15
X154.47Y-115.15
X157.01Y-115.15
X159.55Y-115.15
X162.09Y-115.15
X164.63Y-115.15
X167.17Y-115.15
X169.71Y-115.15
X154.94Y-99.06
X154.94Y-101.6
X154.94Y-104.14
T4
X128.27Y-114.3
X130.81Y-114.3
T5
X162.56Y-99.06
X162.56Y-101.6
X162.56Y-104.14
X162.56Y-106.68
X162.56Y-109.22
T0
M30
