G04 #@! TF.GenerationSoftware,KiCad,Pcbnew,(5.1.6)-1*
G04 #@! TF.CreationDate,2020-05-27T17:56:15-07:00*
G04 #@! TF.ProjectId,MKRShield_v1,4d4b5253-6869-4656-9c64-5f76312e6b69,0.1*
G04 #@! TF.SameCoordinates,Original*
G04 #@! TF.FileFunction,Soldermask,Bot*
G04 #@! TF.FilePolarity,Negative*
%FSLAX46Y46*%
G04 Gerber Fmt 4.6, Leading zero omitted, Abs format (unit mm)*
G04 Created by KiCad (PCBNEW (5.1.6)-1) date 2020-05-27 17:56:15*
%MOMM*%
%LPD*%
G01*
G04 APERTURE LIST*
%ADD10C,0.100000*%
G04 APERTURE END LIST*
D10*
G36*
X116937479Y-116460100D02*
G01*
X117172855Y-116436917D01*
X117399187Y-116368261D01*
X117607774Y-116256768D01*
X117790603Y-116106724D01*
X117940647Y-115923895D01*
X118052140Y-115715308D01*
X118143979Y-115253600D01*
X118120796Y-115018224D01*
X118052140Y-114791892D01*
X117940647Y-114583305D01*
X117790603Y-114400476D01*
X117607774Y-114250432D01*
X117399187Y-114138939D01*
X116937479Y-114047100D01*
X116702103Y-114070283D01*
X116475771Y-114138939D01*
X116267184Y-114250432D01*
X116084355Y-114400476D01*
X115934311Y-114583305D01*
X115822818Y-114791892D01*
X115730979Y-115253600D01*
X115754162Y-115488976D01*
X115822818Y-115715308D01*
X115934311Y-115923895D01*
X116084355Y-116106724D01*
X116267184Y-116256768D01*
X116475771Y-116368261D01*
X116937479Y-116460100D01*
G37*
G36*
X116937479Y-95960100D02*
G01*
X117172855Y-95936917D01*
X117399187Y-95868261D01*
X117607774Y-95756768D01*
X117790603Y-95606724D01*
X117940647Y-95423895D01*
X118052140Y-95215308D01*
X118143979Y-94753600D01*
X118120796Y-94518224D01*
X118052140Y-94291892D01*
X117940647Y-94083305D01*
X117790603Y-93900476D01*
X117607774Y-93750432D01*
X117399187Y-93638939D01*
X116937479Y-93547100D01*
X116702103Y-93570283D01*
X116475771Y-93638939D01*
X116267184Y-93750432D01*
X116084355Y-93900476D01*
X115934311Y-94083305D01*
X115822818Y-94291892D01*
X115730979Y-94753600D01*
X115754162Y-94988976D01*
X115822818Y-95215308D01*
X115934311Y-95423895D01*
X116084355Y-95606724D01*
X116267184Y-95756768D01*
X116475771Y-95868261D01*
X116937479Y-95960100D01*
G37*
G36*
X173937479Y-95960100D02*
G01*
X174172855Y-95936917D01*
X174399187Y-95868261D01*
X174607774Y-95756768D01*
X174790603Y-95606724D01*
X174940647Y-95423895D01*
X175052140Y-95215308D01*
X175143979Y-94753600D01*
X175120796Y-94518224D01*
X175052140Y-94291892D01*
X174940647Y-94083305D01*
X174790603Y-93900476D01*
X174607774Y-93750432D01*
X174399187Y-93638939D01*
X173937479Y-93547100D01*
X173702103Y-93570283D01*
X173475771Y-93638939D01*
X173267184Y-93750432D01*
X173084355Y-93900476D01*
X172934311Y-94083305D01*
X172822818Y-94291892D01*
X172730979Y-94753600D01*
X172754162Y-94988976D01*
X172822818Y-95215308D01*
X172934311Y-95423895D01*
X173084355Y-95606724D01*
X173267184Y-95756768D01*
X173475771Y-95868261D01*
X173937479Y-95960100D01*
G37*
G36*
X173937479Y-116460100D02*
G01*
X174172855Y-116436917D01*
X174399187Y-116368261D01*
X174607774Y-116256768D01*
X174790603Y-116106724D01*
X174940647Y-115923895D01*
X175052140Y-115715308D01*
X175143979Y-115253600D01*
X175120796Y-115018224D01*
X175052140Y-114791892D01*
X174940647Y-114583305D01*
X174790603Y-114400476D01*
X174607774Y-114250432D01*
X174399187Y-114138939D01*
X173937479Y-114047100D01*
X173702103Y-114070283D01*
X173475771Y-114138939D01*
X173267184Y-114250432D01*
X173084355Y-114400476D01*
X172934311Y-114583305D01*
X172822818Y-114791892D01*
X172730979Y-115253600D01*
X172754162Y-115488976D01*
X172822818Y-115715308D01*
X172934311Y-115923895D01*
X173084355Y-116106724D01*
X173267184Y-116256768D01*
X173475771Y-116368261D01*
X173937479Y-116460100D01*
G37*
G36*
X162256963Y-114138130D02*
G01*
X162388982Y-114164390D01*
X162575520Y-114241656D01*
X162743400Y-114353830D01*
X162886170Y-114496600D01*
X162998344Y-114664480D01*
X163075610Y-114851018D01*
X163075610Y-114851020D01*
X163115000Y-115049045D01*
X163115000Y-115250955D01*
X163101870Y-115316963D01*
X163075610Y-115448982D01*
X162998344Y-115635520D01*
X162886170Y-115803400D01*
X162743400Y-115946170D01*
X162575520Y-116058344D01*
X162388982Y-116135610D01*
X162256963Y-116161870D01*
X162190955Y-116175000D01*
X161989045Y-116175000D01*
X161923037Y-116161870D01*
X161791018Y-116135610D01*
X161604480Y-116058344D01*
X161436600Y-115946170D01*
X161293830Y-115803400D01*
X161181656Y-115635520D01*
X161104390Y-115448982D01*
X161078130Y-115316963D01*
X161065000Y-115250955D01*
X161065000Y-115049045D01*
X161104390Y-114851020D01*
X161104390Y-114851018D01*
X161181656Y-114664480D01*
X161293830Y-114496600D01*
X161436600Y-114353830D01*
X161604480Y-114241656D01*
X161791018Y-114164390D01*
X161923037Y-114138130D01*
X161989045Y-114125000D01*
X162190955Y-114125000D01*
X162256963Y-114138130D01*
G37*
G36*
X167336963Y-114138130D02*
G01*
X167468982Y-114164390D01*
X167655520Y-114241656D01*
X167823400Y-114353830D01*
X167966170Y-114496600D01*
X168078344Y-114664480D01*
X168155610Y-114851018D01*
X168155610Y-114851020D01*
X168195000Y-115049045D01*
X168195000Y-115250955D01*
X168181870Y-115316963D01*
X168155610Y-115448982D01*
X168078344Y-115635520D01*
X167966170Y-115803400D01*
X167823400Y-115946170D01*
X167655520Y-116058344D01*
X167468982Y-116135610D01*
X167336963Y-116161870D01*
X167270955Y-116175000D01*
X167069045Y-116175000D01*
X167003037Y-116161870D01*
X166871018Y-116135610D01*
X166684480Y-116058344D01*
X166516600Y-115946170D01*
X166373830Y-115803400D01*
X166261656Y-115635520D01*
X166184390Y-115448982D01*
X166158130Y-115316963D01*
X166145000Y-115250955D01*
X166145000Y-115049045D01*
X166184390Y-114851020D01*
X166184390Y-114851018D01*
X166261656Y-114664480D01*
X166373830Y-114496600D01*
X166516600Y-114353830D01*
X166684480Y-114241656D01*
X166871018Y-114164390D01*
X167003037Y-114138130D01*
X167069045Y-114125000D01*
X167270955Y-114125000D01*
X167336963Y-114138130D01*
G37*
G36*
X164796963Y-114138130D02*
G01*
X164928982Y-114164390D01*
X165115520Y-114241656D01*
X165283400Y-114353830D01*
X165426170Y-114496600D01*
X165538344Y-114664480D01*
X165615610Y-114851018D01*
X165615610Y-114851020D01*
X165655000Y-115049045D01*
X165655000Y-115250955D01*
X165641870Y-115316963D01*
X165615610Y-115448982D01*
X165538344Y-115635520D01*
X165426170Y-115803400D01*
X165283400Y-115946170D01*
X165115520Y-116058344D01*
X164928982Y-116135610D01*
X164796963Y-116161870D01*
X164730955Y-116175000D01*
X164529045Y-116175000D01*
X164463037Y-116161870D01*
X164331018Y-116135610D01*
X164144480Y-116058344D01*
X163976600Y-115946170D01*
X163833830Y-115803400D01*
X163721656Y-115635520D01*
X163644390Y-115448982D01*
X163618130Y-115316963D01*
X163605000Y-115250955D01*
X163605000Y-115049045D01*
X163644390Y-114851020D01*
X163644390Y-114851018D01*
X163721656Y-114664480D01*
X163833830Y-114496600D01*
X163976600Y-114353830D01*
X164144480Y-114241656D01*
X164331018Y-114164390D01*
X164463037Y-114138130D01*
X164529045Y-114125000D01*
X164730955Y-114125000D01*
X164796963Y-114138130D01*
G37*
G36*
X159716963Y-114138130D02*
G01*
X159848982Y-114164390D01*
X160035520Y-114241656D01*
X160203400Y-114353830D01*
X160346170Y-114496600D01*
X160458344Y-114664480D01*
X160535610Y-114851018D01*
X160535610Y-114851020D01*
X160575000Y-115049045D01*
X160575000Y-115250955D01*
X160561870Y-115316963D01*
X160535610Y-115448982D01*
X160458344Y-115635520D01*
X160346170Y-115803400D01*
X160203400Y-115946170D01*
X160035520Y-116058344D01*
X159848982Y-116135610D01*
X159716963Y-116161870D01*
X159650955Y-116175000D01*
X159449045Y-116175000D01*
X159383037Y-116161870D01*
X159251018Y-116135610D01*
X159064480Y-116058344D01*
X158896600Y-115946170D01*
X158753830Y-115803400D01*
X158641656Y-115635520D01*
X158564390Y-115448982D01*
X158538130Y-115316963D01*
X158525000Y-115250955D01*
X158525000Y-115049045D01*
X158564390Y-114851020D01*
X158564390Y-114851018D01*
X158641656Y-114664480D01*
X158753830Y-114496600D01*
X158896600Y-114353830D01*
X159064480Y-114241656D01*
X159251018Y-114164390D01*
X159383037Y-114138130D01*
X159449045Y-114125000D01*
X159650955Y-114125000D01*
X159716963Y-114138130D01*
G37*
G36*
X157176963Y-114138130D02*
G01*
X157308982Y-114164390D01*
X157495520Y-114241656D01*
X157663400Y-114353830D01*
X157806170Y-114496600D01*
X157918344Y-114664480D01*
X157995610Y-114851018D01*
X157995610Y-114851020D01*
X158035000Y-115049045D01*
X158035000Y-115250955D01*
X158021870Y-115316963D01*
X157995610Y-115448982D01*
X157918344Y-115635520D01*
X157806170Y-115803400D01*
X157663400Y-115946170D01*
X157495520Y-116058344D01*
X157308982Y-116135610D01*
X157176963Y-116161870D01*
X157110955Y-116175000D01*
X156909045Y-116175000D01*
X156843037Y-116161870D01*
X156711018Y-116135610D01*
X156524480Y-116058344D01*
X156356600Y-115946170D01*
X156213830Y-115803400D01*
X156101656Y-115635520D01*
X156024390Y-115448982D01*
X155998130Y-115316963D01*
X155985000Y-115250955D01*
X155985000Y-115049045D01*
X156024390Y-114851020D01*
X156024390Y-114851018D01*
X156101656Y-114664480D01*
X156213830Y-114496600D01*
X156356600Y-114353830D01*
X156524480Y-114241656D01*
X156711018Y-114164390D01*
X156843037Y-114138130D01*
X156909045Y-114125000D01*
X157110955Y-114125000D01*
X157176963Y-114138130D01*
G37*
G36*
X154636963Y-114138130D02*
G01*
X154768982Y-114164390D01*
X154955520Y-114241656D01*
X155123400Y-114353830D01*
X155266170Y-114496600D01*
X155378344Y-114664480D01*
X155455610Y-114851018D01*
X155455610Y-114851020D01*
X155495000Y-115049045D01*
X155495000Y-115250955D01*
X155481870Y-115316963D01*
X155455610Y-115448982D01*
X155378344Y-115635520D01*
X155266170Y-115803400D01*
X155123400Y-115946170D01*
X154955520Y-116058344D01*
X154768982Y-116135610D01*
X154636963Y-116161870D01*
X154570955Y-116175000D01*
X154369045Y-116175000D01*
X154303037Y-116161870D01*
X154171018Y-116135610D01*
X153984480Y-116058344D01*
X153816600Y-115946170D01*
X153673830Y-115803400D01*
X153561656Y-115635520D01*
X153484390Y-115448982D01*
X153458130Y-115316963D01*
X153445000Y-115250955D01*
X153445000Y-115049045D01*
X153484390Y-114851020D01*
X153484390Y-114851018D01*
X153561656Y-114664480D01*
X153673830Y-114496600D01*
X153816600Y-114353830D01*
X153984480Y-114241656D01*
X154171018Y-114164390D01*
X154303037Y-114138130D01*
X154369045Y-114125000D01*
X154570955Y-114125000D01*
X154636963Y-114138130D01*
G37*
G36*
X152096963Y-114138130D02*
G01*
X152228982Y-114164390D01*
X152415520Y-114241656D01*
X152583400Y-114353830D01*
X152726170Y-114496600D01*
X152838344Y-114664480D01*
X152915610Y-114851018D01*
X152915610Y-114851020D01*
X152955000Y-115049045D01*
X152955000Y-115250955D01*
X152941870Y-115316963D01*
X152915610Y-115448982D01*
X152838344Y-115635520D01*
X152726170Y-115803400D01*
X152583400Y-115946170D01*
X152415520Y-116058344D01*
X152228982Y-116135610D01*
X152096963Y-116161870D01*
X152030955Y-116175000D01*
X151829045Y-116175000D01*
X151763037Y-116161870D01*
X151631018Y-116135610D01*
X151444480Y-116058344D01*
X151276600Y-115946170D01*
X151133830Y-115803400D01*
X151021656Y-115635520D01*
X150944390Y-115448982D01*
X150918130Y-115316963D01*
X150905000Y-115250955D01*
X150905000Y-115049045D01*
X150944390Y-114851020D01*
X150944390Y-114851018D01*
X151021656Y-114664480D01*
X151133830Y-114496600D01*
X151276600Y-114353830D01*
X151444480Y-114241656D01*
X151631018Y-114164390D01*
X151763037Y-114138130D01*
X151829045Y-114125000D01*
X152030955Y-114125000D01*
X152096963Y-114138130D01*
G37*
G36*
X147016963Y-114138130D02*
G01*
X147148982Y-114164390D01*
X147335520Y-114241656D01*
X147503400Y-114353830D01*
X147646170Y-114496600D01*
X147758344Y-114664480D01*
X147835610Y-114851018D01*
X147835610Y-114851020D01*
X147875000Y-115049045D01*
X147875000Y-115250955D01*
X147861870Y-115316963D01*
X147835610Y-115448982D01*
X147758344Y-115635520D01*
X147646170Y-115803400D01*
X147503400Y-115946170D01*
X147335520Y-116058344D01*
X147148982Y-116135610D01*
X147016963Y-116161870D01*
X146950955Y-116175000D01*
X146749045Y-116175000D01*
X146683037Y-116161870D01*
X146551018Y-116135610D01*
X146364480Y-116058344D01*
X146196600Y-115946170D01*
X146053830Y-115803400D01*
X145941656Y-115635520D01*
X145864390Y-115448982D01*
X145838130Y-115316963D01*
X145825000Y-115250955D01*
X145825000Y-115049045D01*
X145864390Y-114851020D01*
X145864390Y-114851018D01*
X145941656Y-114664480D01*
X146053830Y-114496600D01*
X146196600Y-114353830D01*
X146364480Y-114241656D01*
X146551018Y-114164390D01*
X146683037Y-114138130D01*
X146749045Y-114125000D01*
X146950955Y-114125000D01*
X147016963Y-114138130D01*
G37*
G36*
X169876963Y-114138130D02*
G01*
X170008982Y-114164390D01*
X170195520Y-114241656D01*
X170363400Y-114353830D01*
X170506170Y-114496600D01*
X170618344Y-114664480D01*
X170695610Y-114851018D01*
X170695610Y-114851020D01*
X170735000Y-115049045D01*
X170735000Y-115250955D01*
X170721870Y-115316963D01*
X170695610Y-115448982D01*
X170618344Y-115635520D01*
X170506170Y-115803400D01*
X170363400Y-115946170D01*
X170195520Y-116058344D01*
X170008982Y-116135610D01*
X169876963Y-116161870D01*
X169810955Y-116175000D01*
X169609045Y-116175000D01*
X169543037Y-116161870D01*
X169411018Y-116135610D01*
X169224480Y-116058344D01*
X169056600Y-115946170D01*
X168913830Y-115803400D01*
X168801656Y-115635520D01*
X168724390Y-115448982D01*
X168698130Y-115316963D01*
X168685000Y-115250955D01*
X168685000Y-115049045D01*
X168724390Y-114851020D01*
X168724390Y-114851018D01*
X168801656Y-114664480D01*
X168913830Y-114496600D01*
X169056600Y-114353830D01*
X169224480Y-114241656D01*
X169411018Y-114164390D01*
X169543037Y-114138130D01*
X169609045Y-114125000D01*
X169810955Y-114125000D01*
X169876963Y-114138130D01*
G37*
G36*
X137715000Y-116175000D02*
G01*
X135665000Y-116175000D01*
X135665000Y-114125000D01*
X137715000Y-114125000D01*
X137715000Y-116175000D01*
G37*
G36*
X139396963Y-114138130D02*
G01*
X139528982Y-114164390D01*
X139715520Y-114241656D01*
X139883400Y-114353830D01*
X140026170Y-114496600D01*
X140138344Y-114664480D01*
X140215610Y-114851018D01*
X140215610Y-114851020D01*
X140255000Y-115049045D01*
X140255000Y-115250955D01*
X140241870Y-115316963D01*
X140215610Y-115448982D01*
X140138344Y-115635520D01*
X140026170Y-115803400D01*
X139883400Y-115946170D01*
X139715520Y-116058344D01*
X139528982Y-116135610D01*
X139396963Y-116161870D01*
X139330955Y-116175000D01*
X139129045Y-116175000D01*
X139063037Y-116161870D01*
X138931018Y-116135610D01*
X138744480Y-116058344D01*
X138576600Y-115946170D01*
X138433830Y-115803400D01*
X138321656Y-115635520D01*
X138244390Y-115448982D01*
X138218130Y-115316963D01*
X138205000Y-115250955D01*
X138205000Y-115049045D01*
X138244390Y-114851020D01*
X138244390Y-114851018D01*
X138321656Y-114664480D01*
X138433830Y-114496600D01*
X138576600Y-114353830D01*
X138744480Y-114241656D01*
X138931018Y-114164390D01*
X139063037Y-114138130D01*
X139129045Y-114125000D01*
X139330955Y-114125000D01*
X139396963Y-114138130D01*
G37*
G36*
X141936963Y-114138130D02*
G01*
X142068982Y-114164390D01*
X142255520Y-114241656D01*
X142423400Y-114353830D01*
X142566170Y-114496600D01*
X142678344Y-114664480D01*
X142755610Y-114851018D01*
X142755610Y-114851020D01*
X142795000Y-115049045D01*
X142795000Y-115250955D01*
X142781870Y-115316963D01*
X142755610Y-115448982D01*
X142678344Y-115635520D01*
X142566170Y-115803400D01*
X142423400Y-115946170D01*
X142255520Y-116058344D01*
X142068982Y-116135610D01*
X141936963Y-116161870D01*
X141870955Y-116175000D01*
X141669045Y-116175000D01*
X141603037Y-116161870D01*
X141471018Y-116135610D01*
X141284480Y-116058344D01*
X141116600Y-115946170D01*
X140973830Y-115803400D01*
X140861656Y-115635520D01*
X140784390Y-115448982D01*
X140758130Y-115316963D01*
X140745000Y-115250955D01*
X140745000Y-115049045D01*
X140784390Y-114851020D01*
X140784390Y-114851018D01*
X140861656Y-114664480D01*
X140973830Y-114496600D01*
X141116600Y-114353830D01*
X141284480Y-114241656D01*
X141471018Y-114164390D01*
X141603037Y-114138130D01*
X141669045Y-114125000D01*
X141870955Y-114125000D01*
X141936963Y-114138130D01*
G37*
G36*
X144476963Y-114138130D02*
G01*
X144608982Y-114164390D01*
X144795520Y-114241656D01*
X144963400Y-114353830D01*
X145106170Y-114496600D01*
X145218344Y-114664480D01*
X145295610Y-114851018D01*
X145295610Y-114851020D01*
X145335000Y-115049045D01*
X145335000Y-115250955D01*
X145321870Y-115316963D01*
X145295610Y-115448982D01*
X145218344Y-115635520D01*
X145106170Y-115803400D01*
X144963400Y-115946170D01*
X144795520Y-116058344D01*
X144608982Y-116135610D01*
X144476963Y-116161870D01*
X144410955Y-116175000D01*
X144209045Y-116175000D01*
X144143037Y-116161870D01*
X144011018Y-116135610D01*
X143824480Y-116058344D01*
X143656600Y-115946170D01*
X143513830Y-115803400D01*
X143401656Y-115635520D01*
X143324390Y-115448982D01*
X143298130Y-115316963D01*
X143285000Y-115250955D01*
X143285000Y-115049045D01*
X143324390Y-114851020D01*
X143324390Y-114851018D01*
X143401656Y-114664480D01*
X143513830Y-114496600D01*
X143656600Y-114353830D01*
X143824480Y-114241656D01*
X144011018Y-114164390D01*
X144143037Y-114138130D01*
X144209045Y-114125000D01*
X144410955Y-114125000D01*
X144476963Y-114138130D01*
G37*
G36*
X149556963Y-114138130D02*
G01*
X149688982Y-114164390D01*
X149875520Y-114241656D01*
X150043400Y-114353830D01*
X150186170Y-114496600D01*
X150298344Y-114664480D01*
X150375610Y-114851018D01*
X150375610Y-114851020D01*
X150415000Y-115049045D01*
X150415000Y-115250955D01*
X150401870Y-115316963D01*
X150375610Y-115448982D01*
X150298344Y-115635520D01*
X150186170Y-115803400D01*
X150043400Y-115946170D01*
X149875520Y-116058344D01*
X149688982Y-116135610D01*
X149556963Y-116161870D01*
X149490955Y-116175000D01*
X149289045Y-116175000D01*
X149223037Y-116161870D01*
X149091018Y-116135610D01*
X148904480Y-116058344D01*
X148736600Y-115946170D01*
X148593830Y-115803400D01*
X148481656Y-115635520D01*
X148404390Y-115448982D01*
X148378130Y-115316963D01*
X148365000Y-115250955D01*
X148365000Y-115049045D01*
X148404390Y-114851020D01*
X148404390Y-114851018D01*
X148481656Y-114664480D01*
X148593830Y-114496600D01*
X148736600Y-114353830D01*
X148904480Y-114241656D01*
X149091018Y-114164390D01*
X149223037Y-114138130D01*
X149289045Y-114125000D01*
X149490955Y-114125000D01*
X149556963Y-114138130D01*
G37*
G36*
X131124295Y-113263907D02*
G01*
X131320388Y-113345132D01*
X131496866Y-113463051D01*
X131646949Y-113613134D01*
X131764868Y-113789612D01*
X131846093Y-113985705D01*
X131887500Y-114193875D01*
X131887500Y-114406125D01*
X131846093Y-114614295D01*
X131764868Y-114810388D01*
X131646949Y-114986866D01*
X131496866Y-115136949D01*
X131320388Y-115254868D01*
X131124295Y-115336093D01*
X130916125Y-115377500D01*
X130703875Y-115377500D01*
X130495705Y-115336093D01*
X130299612Y-115254868D01*
X130123134Y-115136949D01*
X129973051Y-114986866D01*
X129855132Y-114810388D01*
X129773907Y-114614295D01*
X129732500Y-114406125D01*
X129732500Y-114193875D01*
X129773907Y-113985705D01*
X129855132Y-113789612D01*
X129973051Y-113613134D01*
X130123134Y-113463051D01*
X130299612Y-113345132D01*
X130495705Y-113263907D01*
X130703875Y-113222500D01*
X130916125Y-113222500D01*
X131124295Y-113263907D01*
G37*
G36*
X128584295Y-113263907D02*
G01*
X128780388Y-113345132D01*
X128956866Y-113463051D01*
X129106949Y-113613134D01*
X129224868Y-113789612D01*
X129306093Y-113985705D01*
X129347500Y-114193875D01*
X129347500Y-114406125D01*
X129306093Y-114614295D01*
X129224868Y-114810388D01*
X129106949Y-114986866D01*
X128956866Y-115136949D01*
X128780388Y-115254868D01*
X128584295Y-115336093D01*
X128376125Y-115377500D01*
X128163875Y-115377500D01*
X127955705Y-115336093D01*
X127759612Y-115254868D01*
X127583134Y-115136949D01*
X127433051Y-114986866D01*
X127315132Y-114810388D01*
X127233907Y-114614295D01*
X127192500Y-114406125D01*
X127192500Y-114193875D01*
X127233907Y-113985705D01*
X127315132Y-113789612D01*
X127433051Y-113613134D01*
X127583134Y-113463051D01*
X127759612Y-113345132D01*
X127955705Y-113263907D01*
X128163875Y-113222500D01*
X128376125Y-113222500D01*
X128584295Y-113263907D01*
G37*
G36*
X145007290Y-110785619D02*
G01*
X145071689Y-110798429D01*
X145253678Y-110873811D01*
X145417463Y-110983249D01*
X145556751Y-111122537D01*
X145666189Y-111286322D01*
X145741571Y-111468311D01*
X145780000Y-111661509D01*
X145780000Y-111858491D01*
X145741571Y-112051689D01*
X145666189Y-112233678D01*
X145556751Y-112397463D01*
X145417463Y-112536751D01*
X145253678Y-112646189D01*
X145071689Y-112721571D01*
X145007290Y-112734381D01*
X144878493Y-112760000D01*
X144681507Y-112760000D01*
X144552710Y-112734381D01*
X144488311Y-112721571D01*
X144306322Y-112646189D01*
X144142537Y-112536751D01*
X144003249Y-112397463D01*
X143893811Y-112233678D01*
X143818429Y-112051689D01*
X143780000Y-111858491D01*
X143780000Y-111661509D01*
X143818429Y-111468311D01*
X143893811Y-111286322D01*
X144003249Y-111122537D01*
X144142537Y-110983249D01*
X144306322Y-110873811D01*
X144488311Y-110798429D01*
X144552710Y-110785619D01*
X144681507Y-110760000D01*
X144878493Y-110760000D01*
X145007290Y-110785619D01*
G37*
G36*
X162902734Y-97930154D02*
G01*
X163116569Y-98018728D01*
X163116571Y-98018729D01*
X163309019Y-98147318D01*
X163472682Y-98310981D01*
X163547222Y-98422539D01*
X163601272Y-98503431D01*
X163689846Y-98717266D01*
X163735000Y-98944271D01*
X163735000Y-99175729D01*
X163689846Y-99402734D01*
X163601272Y-99616569D01*
X163601271Y-99616571D01*
X163472682Y-99809019D01*
X163309019Y-99972682D01*
X163116571Y-100101271D01*
X163116570Y-100101272D01*
X163116569Y-100101272D01*
X162902734Y-100189846D01*
X162814469Y-100207403D01*
X162791020Y-100214516D01*
X162769409Y-100226067D01*
X162750467Y-100241612D01*
X162734922Y-100260554D01*
X162723371Y-100282165D01*
X162716258Y-100305614D01*
X162713856Y-100330000D01*
X162716258Y-100354386D01*
X162723371Y-100377835D01*
X162734922Y-100399446D01*
X162750467Y-100418388D01*
X162769409Y-100433933D01*
X162791020Y-100445484D01*
X162814469Y-100452597D01*
X162902734Y-100470154D01*
X163116569Y-100558728D01*
X163116571Y-100558729D01*
X163309019Y-100687318D01*
X163472682Y-100850981D01*
X163536572Y-100946600D01*
X163601272Y-101043431D01*
X163689846Y-101257266D01*
X163735000Y-101484271D01*
X163735000Y-101715729D01*
X163689846Y-101942734D01*
X163601272Y-102156569D01*
X163601271Y-102156571D01*
X163472682Y-102349019D01*
X163309019Y-102512682D01*
X163116571Y-102641271D01*
X163116570Y-102641272D01*
X163116569Y-102641272D01*
X162902734Y-102729846D01*
X162814469Y-102747403D01*
X162791020Y-102754516D01*
X162769409Y-102766067D01*
X162750467Y-102781612D01*
X162734922Y-102800554D01*
X162723371Y-102822165D01*
X162716258Y-102845614D01*
X162713856Y-102870000D01*
X162716258Y-102894386D01*
X162723371Y-102917835D01*
X162734922Y-102939446D01*
X162750467Y-102958388D01*
X162769409Y-102973933D01*
X162791020Y-102985484D01*
X162814469Y-102992597D01*
X162902734Y-103010154D01*
X163116569Y-103098728D01*
X163116571Y-103098729D01*
X163309019Y-103227318D01*
X163472682Y-103390981D01*
X163547222Y-103502539D01*
X163601272Y-103583431D01*
X163689846Y-103797266D01*
X163735000Y-104024271D01*
X163735000Y-104255729D01*
X163689846Y-104482734D01*
X163601272Y-104696569D01*
X163601271Y-104696571D01*
X163472682Y-104889019D01*
X163309019Y-105052682D01*
X163116571Y-105181271D01*
X163116570Y-105181272D01*
X163116569Y-105181272D01*
X162902734Y-105269846D01*
X162814469Y-105287403D01*
X162791020Y-105294516D01*
X162769409Y-105306067D01*
X162750467Y-105321612D01*
X162734922Y-105340554D01*
X162723371Y-105362165D01*
X162716258Y-105385614D01*
X162713856Y-105410000D01*
X162716258Y-105434386D01*
X162723371Y-105457835D01*
X162734922Y-105479446D01*
X162750467Y-105498388D01*
X162769409Y-105513933D01*
X162791020Y-105525484D01*
X162814469Y-105532597D01*
X162902734Y-105550154D01*
X163116569Y-105638728D01*
X163116571Y-105638729D01*
X163309019Y-105767318D01*
X163472682Y-105930981D01*
X163547222Y-106042539D01*
X163601272Y-106123431D01*
X163689846Y-106337266D01*
X163735000Y-106564271D01*
X163735000Y-106795729D01*
X163689846Y-107022734D01*
X163601272Y-107236569D01*
X163601271Y-107236571D01*
X163472682Y-107429019D01*
X163309019Y-107592682D01*
X163116571Y-107721271D01*
X163116570Y-107721272D01*
X163116569Y-107721272D01*
X162915600Y-107804517D01*
X162893989Y-107816068D01*
X162875047Y-107831614D01*
X162859502Y-107850556D01*
X162847951Y-107872166D01*
X162840838Y-107895615D01*
X162838436Y-107920001D01*
X162840838Y-107944387D01*
X162847951Y-107967836D01*
X162859502Y-107989447D01*
X162875048Y-108008389D01*
X162893990Y-108023934D01*
X162915600Y-108035485D01*
X162939049Y-108042598D01*
X162963435Y-108045000D01*
X163735000Y-108045000D01*
X163735000Y-110395000D01*
X161385000Y-110395000D01*
X161385000Y-108045000D01*
X162156565Y-108045000D01*
X162180951Y-108042598D01*
X162204400Y-108035485D01*
X162226011Y-108023934D01*
X162244953Y-108008389D01*
X162260498Y-107989447D01*
X162272049Y-107967836D01*
X162279162Y-107944387D01*
X162281564Y-107920001D01*
X162279162Y-107895615D01*
X162272049Y-107872166D01*
X162260498Y-107850555D01*
X162244953Y-107831613D01*
X162226011Y-107816068D01*
X162204400Y-107804517D01*
X162003431Y-107721272D01*
X162003430Y-107721272D01*
X162003429Y-107721271D01*
X161810981Y-107592682D01*
X161647318Y-107429019D01*
X161518729Y-107236571D01*
X161518728Y-107236569D01*
X161430154Y-107022734D01*
X161385000Y-106795729D01*
X161385000Y-106564271D01*
X161430154Y-106337266D01*
X161518728Y-106123431D01*
X161572778Y-106042539D01*
X161647318Y-105930981D01*
X161810981Y-105767318D01*
X162003429Y-105638729D01*
X162003431Y-105638728D01*
X162217266Y-105550154D01*
X162305531Y-105532597D01*
X162328980Y-105525484D01*
X162350591Y-105513933D01*
X162369533Y-105498388D01*
X162385078Y-105479446D01*
X162396629Y-105457835D01*
X162403742Y-105434386D01*
X162406144Y-105410000D01*
X162403742Y-105385614D01*
X162396629Y-105362165D01*
X162385078Y-105340554D01*
X162369533Y-105321612D01*
X162350591Y-105306067D01*
X162328980Y-105294516D01*
X162305531Y-105287403D01*
X162217266Y-105269846D01*
X162003431Y-105181272D01*
X162003430Y-105181272D01*
X162003429Y-105181271D01*
X161810981Y-105052682D01*
X161647318Y-104889019D01*
X161518729Y-104696571D01*
X161518728Y-104696569D01*
X161430154Y-104482734D01*
X161385000Y-104255729D01*
X161385000Y-104024271D01*
X161430154Y-103797266D01*
X161518728Y-103583431D01*
X161572778Y-103502539D01*
X161647318Y-103390981D01*
X161810981Y-103227318D01*
X162003429Y-103098729D01*
X162003431Y-103098728D01*
X162217266Y-103010154D01*
X162305531Y-102992597D01*
X162328980Y-102985484D01*
X162350591Y-102973933D01*
X162369533Y-102958388D01*
X162385078Y-102939446D01*
X162396629Y-102917835D01*
X162403742Y-102894386D01*
X162406144Y-102870000D01*
X162403742Y-102845614D01*
X162396629Y-102822165D01*
X162385078Y-102800554D01*
X162369533Y-102781612D01*
X162350591Y-102766067D01*
X162328980Y-102754516D01*
X162305531Y-102747403D01*
X162217266Y-102729846D01*
X162003431Y-102641272D01*
X162003430Y-102641272D01*
X162003429Y-102641271D01*
X161810981Y-102512682D01*
X161647318Y-102349019D01*
X161518729Y-102156571D01*
X161518728Y-102156569D01*
X161430154Y-101942734D01*
X161385000Y-101715729D01*
X161385000Y-101484271D01*
X161430154Y-101257266D01*
X161518728Y-101043431D01*
X161583428Y-100946600D01*
X161647318Y-100850981D01*
X161810981Y-100687318D01*
X162003429Y-100558729D01*
X162003431Y-100558728D01*
X162217266Y-100470154D01*
X162305531Y-100452597D01*
X162328980Y-100445484D01*
X162350591Y-100433933D01*
X162369533Y-100418388D01*
X162385078Y-100399446D01*
X162396629Y-100377835D01*
X162403742Y-100354386D01*
X162406144Y-100330000D01*
X162403742Y-100305614D01*
X162396629Y-100282165D01*
X162385078Y-100260554D01*
X162369533Y-100241612D01*
X162350591Y-100226067D01*
X162328980Y-100214516D01*
X162305531Y-100207403D01*
X162217266Y-100189846D01*
X162003431Y-100101272D01*
X162003430Y-100101272D01*
X162003429Y-100101271D01*
X161810981Y-99972682D01*
X161647318Y-99809019D01*
X161518729Y-99616571D01*
X161518728Y-99616569D01*
X161430154Y-99402734D01*
X161385000Y-99175729D01*
X161385000Y-98944271D01*
X161430154Y-98717266D01*
X161518728Y-98503431D01*
X161572778Y-98422539D01*
X161647318Y-98310981D01*
X161810981Y-98147318D01*
X162003429Y-98018729D01*
X162003431Y-98018728D01*
X162217266Y-97930154D01*
X162444271Y-97885000D01*
X162675729Y-97885000D01*
X162902734Y-97930154D01*
G37*
G36*
X145007290Y-105705619D02*
G01*
X145071689Y-105718429D01*
X145253678Y-105793811D01*
X145417463Y-105903249D01*
X145556751Y-106042537D01*
X145666189Y-106206322D01*
X145741571Y-106388311D01*
X145754381Y-106452710D01*
X145780000Y-106581507D01*
X145780000Y-106778493D01*
X145754381Y-106907290D01*
X145741571Y-106971689D01*
X145666189Y-107153678D01*
X145556751Y-107317463D01*
X145417463Y-107456751D01*
X145253678Y-107566189D01*
X145071689Y-107641571D01*
X145026799Y-107650500D01*
X144878493Y-107680000D01*
X144681507Y-107680000D01*
X144533201Y-107650500D01*
X144488311Y-107641571D01*
X144306322Y-107566189D01*
X144142537Y-107456751D01*
X144003249Y-107317463D01*
X143893811Y-107153678D01*
X143818429Y-106971689D01*
X143805619Y-106907290D01*
X143780000Y-106778493D01*
X143780000Y-106581507D01*
X143805619Y-106452710D01*
X143818429Y-106388311D01*
X143893811Y-106206322D01*
X144003249Y-106042537D01*
X144142537Y-105903249D01*
X144306322Y-105793811D01*
X144488311Y-105718429D01*
X144552710Y-105705619D01*
X144681507Y-105680000D01*
X144878493Y-105680000D01*
X145007290Y-105705619D01*
G37*
G36*
X133633084Y-105746795D02*
G01*
X133809703Y-105819953D01*
X133809704Y-105819954D01*
X133968658Y-105926163D01*
X134103837Y-106061342D01*
X134103838Y-106061344D01*
X134210047Y-106220297D01*
X134283205Y-106396916D01*
X134320500Y-106584413D01*
X134320500Y-106775587D01*
X134283205Y-106963084D01*
X134210047Y-107139703D01*
X134200709Y-107153678D01*
X134103837Y-107298658D01*
X133968658Y-107433837D01*
X133888641Y-107487302D01*
X133809703Y-107540047D01*
X133633084Y-107613205D01*
X133445587Y-107650500D01*
X133254413Y-107650500D01*
X133066916Y-107613205D01*
X132890297Y-107540047D01*
X132811359Y-107487302D01*
X132731342Y-107433837D01*
X132596163Y-107298658D01*
X132499291Y-107153678D01*
X132489953Y-107139703D01*
X132416795Y-106963084D01*
X132379500Y-106775587D01*
X132379500Y-106584413D01*
X132416795Y-106396916D01*
X132489953Y-106220297D01*
X132596162Y-106061344D01*
X132596163Y-106061342D01*
X132731342Y-105926163D01*
X132890296Y-105819954D01*
X132890297Y-105819953D01*
X133066916Y-105746795D01*
X133254413Y-105709500D01*
X133445587Y-105709500D01*
X133633084Y-105746795D01*
G37*
G36*
X117633084Y-105746795D02*
G01*
X117809703Y-105819953D01*
X117809704Y-105819954D01*
X117968658Y-105926163D01*
X118103837Y-106061342D01*
X118103838Y-106061344D01*
X118210047Y-106220297D01*
X118283205Y-106396916D01*
X118320500Y-106584413D01*
X118320500Y-106775587D01*
X118283205Y-106963084D01*
X118210047Y-107139703D01*
X118200709Y-107153678D01*
X118103837Y-107298658D01*
X117968658Y-107433837D01*
X117888641Y-107487302D01*
X117809703Y-107540047D01*
X117633084Y-107613205D01*
X117445587Y-107650500D01*
X117254413Y-107650500D01*
X117066916Y-107613205D01*
X116890297Y-107540047D01*
X116811359Y-107487302D01*
X116731342Y-107433837D01*
X116596163Y-107298658D01*
X116499291Y-107153678D01*
X116489953Y-107139703D01*
X116416795Y-106963084D01*
X116379500Y-106775587D01*
X116379500Y-106584413D01*
X116416795Y-106396916D01*
X116489953Y-106220297D01*
X116596162Y-106061344D01*
X116596163Y-106061342D01*
X116731342Y-105926163D01*
X116890296Y-105819954D01*
X116890297Y-105819953D01*
X117066916Y-105746795D01*
X117254413Y-105709500D01*
X117445587Y-105709500D01*
X117633084Y-105746795D01*
G37*
G36*
X155106963Y-103128130D02*
G01*
X155238982Y-103154390D01*
X155425520Y-103231656D01*
X155593400Y-103343830D01*
X155736170Y-103486600D01*
X155848344Y-103654480D01*
X155925610Y-103841018D01*
X155928772Y-103856916D01*
X155965000Y-104039045D01*
X155965000Y-104240955D01*
X155962061Y-104255729D01*
X155925610Y-104438982D01*
X155848344Y-104625520D01*
X155736170Y-104793400D01*
X155593400Y-104936170D01*
X155425520Y-105048344D01*
X155238982Y-105125610D01*
X155106963Y-105151870D01*
X155040955Y-105165000D01*
X154839045Y-105165000D01*
X154773037Y-105151870D01*
X154641018Y-105125610D01*
X154454480Y-105048344D01*
X154286600Y-104936170D01*
X154143830Y-104793400D01*
X154031656Y-104625520D01*
X153954390Y-104438982D01*
X153917939Y-104255729D01*
X153915000Y-104240955D01*
X153915000Y-104039045D01*
X153951228Y-103856916D01*
X153954390Y-103841018D01*
X154031656Y-103654480D01*
X154143830Y-103486600D01*
X154286600Y-103343830D01*
X154454480Y-103231656D01*
X154641018Y-103154390D01*
X154773037Y-103128130D01*
X154839045Y-103115000D01*
X155040955Y-103115000D01*
X155106963Y-103128130D01*
G37*
G36*
X145007290Y-103165619D02*
G01*
X145071689Y-103178429D01*
X145253678Y-103253811D01*
X145417463Y-103363249D01*
X145556751Y-103502537D01*
X145666189Y-103666322D01*
X145741571Y-103848311D01*
X145754381Y-103912710D01*
X145780000Y-104041507D01*
X145780000Y-104238493D01*
X145754381Y-104367290D01*
X145741571Y-104431689D01*
X145666189Y-104613678D01*
X145556751Y-104777463D01*
X145417463Y-104916751D01*
X145253678Y-105026189D01*
X145071689Y-105101571D01*
X145026799Y-105110500D01*
X144878493Y-105140000D01*
X144681507Y-105140000D01*
X144533201Y-105110500D01*
X144488311Y-105101571D01*
X144306322Y-105026189D01*
X144142537Y-104916751D01*
X144003249Y-104777463D01*
X143893811Y-104613678D01*
X143818429Y-104431689D01*
X143805619Y-104367290D01*
X143780000Y-104238493D01*
X143780000Y-104041507D01*
X143805619Y-103912710D01*
X143818429Y-103848311D01*
X143893811Y-103666322D01*
X144003249Y-103502537D01*
X144142537Y-103363249D01*
X144306322Y-103253811D01*
X144488311Y-103178429D01*
X144552710Y-103165619D01*
X144681507Y-103140000D01*
X144878493Y-103140000D01*
X145007290Y-103165619D01*
G37*
G36*
X141197290Y-103165619D02*
G01*
X141261689Y-103178429D01*
X141443678Y-103253811D01*
X141607463Y-103363249D01*
X141746751Y-103502537D01*
X141856189Y-103666322D01*
X141931571Y-103848311D01*
X141944381Y-103912710D01*
X141970000Y-104041507D01*
X141970000Y-104238493D01*
X141944381Y-104367290D01*
X141931571Y-104431689D01*
X141856189Y-104613678D01*
X141746751Y-104777463D01*
X141607463Y-104916751D01*
X141443678Y-105026189D01*
X141261689Y-105101571D01*
X141216799Y-105110500D01*
X141068493Y-105140000D01*
X140871507Y-105140000D01*
X140723201Y-105110500D01*
X140678311Y-105101571D01*
X140496322Y-105026189D01*
X140332537Y-104916751D01*
X140193249Y-104777463D01*
X140083811Y-104613678D01*
X140008429Y-104431689D01*
X139995619Y-104367290D01*
X139970000Y-104238493D01*
X139970000Y-104041507D01*
X139995619Y-103912710D01*
X140008429Y-103848311D01*
X140083811Y-103666322D01*
X140193249Y-103502537D01*
X140332537Y-103363249D01*
X140496322Y-103253811D01*
X140678311Y-103178429D01*
X140742710Y-103165619D01*
X140871507Y-103140000D01*
X141068493Y-103140000D01*
X141197290Y-103165619D01*
G37*
G36*
X133633084Y-103206795D02*
G01*
X133809703Y-103279953D01*
X133809704Y-103279954D01*
X133968658Y-103386163D01*
X134103837Y-103521342D01*
X134103838Y-103521344D01*
X134210047Y-103680297D01*
X134283205Y-103856916D01*
X134320500Y-104044413D01*
X134320500Y-104235587D01*
X134283205Y-104423084D01*
X134210047Y-104599703D01*
X134157302Y-104678641D01*
X134103837Y-104758658D01*
X133968658Y-104893837D01*
X133905302Y-104936170D01*
X133809703Y-105000047D01*
X133633084Y-105073205D01*
X133445587Y-105110500D01*
X133254413Y-105110500D01*
X133066916Y-105073205D01*
X132890297Y-105000047D01*
X132794698Y-104936170D01*
X132731342Y-104893837D01*
X132596163Y-104758658D01*
X132542698Y-104678641D01*
X132489953Y-104599703D01*
X132416795Y-104423084D01*
X132379500Y-104235587D01*
X132379500Y-104044413D01*
X132416795Y-103856916D01*
X132489953Y-103680297D01*
X132596162Y-103521344D01*
X132596163Y-103521342D01*
X132731342Y-103386163D01*
X132890296Y-103279954D01*
X132890297Y-103279953D01*
X133066916Y-103206795D01*
X133254413Y-103169500D01*
X133445587Y-103169500D01*
X133633084Y-103206795D01*
G37*
G36*
X117633084Y-103206795D02*
G01*
X117809703Y-103279953D01*
X117809704Y-103279954D01*
X117968658Y-103386163D01*
X118103837Y-103521342D01*
X118103838Y-103521344D01*
X118210047Y-103680297D01*
X118283205Y-103856916D01*
X118320500Y-104044413D01*
X118320500Y-104235587D01*
X118283205Y-104423084D01*
X118210047Y-104599703D01*
X118157302Y-104678641D01*
X118103837Y-104758658D01*
X117968658Y-104893837D01*
X117905302Y-104936170D01*
X117809703Y-105000047D01*
X117633084Y-105073205D01*
X117445587Y-105110500D01*
X117254413Y-105110500D01*
X117066916Y-105073205D01*
X116890297Y-105000047D01*
X116794698Y-104936170D01*
X116731342Y-104893837D01*
X116596163Y-104758658D01*
X116542698Y-104678641D01*
X116489953Y-104599703D01*
X116416795Y-104423084D01*
X116379500Y-104235587D01*
X116379500Y-104044413D01*
X116416795Y-103856916D01*
X116489953Y-103680297D01*
X116596162Y-103521344D01*
X116596163Y-103521342D01*
X116731342Y-103386163D01*
X116890296Y-103279954D01*
X116890297Y-103279953D01*
X117066916Y-103206795D01*
X117254413Y-103169500D01*
X117445587Y-103169500D01*
X117633084Y-103206795D01*
G37*
G36*
X155106963Y-100588130D02*
G01*
X155238982Y-100614390D01*
X155425520Y-100691656D01*
X155593400Y-100803830D01*
X155736170Y-100946600D01*
X155848344Y-101114480D01*
X155925610Y-101301018D01*
X155925610Y-101301020D01*
X155965000Y-101499045D01*
X155965000Y-101700955D01*
X155962061Y-101715729D01*
X155925610Y-101898982D01*
X155848344Y-102085520D01*
X155736170Y-102253400D01*
X155593400Y-102396170D01*
X155425520Y-102508344D01*
X155238982Y-102585610D01*
X155106963Y-102611870D01*
X155040955Y-102625000D01*
X154839045Y-102625000D01*
X154773037Y-102611870D01*
X154641018Y-102585610D01*
X154454480Y-102508344D01*
X154286600Y-102396170D01*
X154143830Y-102253400D01*
X154031656Y-102085520D01*
X153954390Y-101898982D01*
X153917939Y-101715729D01*
X153915000Y-101700955D01*
X153915000Y-101499045D01*
X153954390Y-101301020D01*
X153954390Y-101301018D01*
X154031656Y-101114480D01*
X154143830Y-100946600D01*
X154286600Y-100803830D01*
X154454480Y-100691656D01*
X154641018Y-100614390D01*
X154773037Y-100588130D01*
X154839045Y-100575000D01*
X155040955Y-100575000D01*
X155106963Y-100588130D01*
G37*
G36*
X117633084Y-100666795D02*
G01*
X117809703Y-100739953D01*
X117809704Y-100739954D01*
X117968658Y-100846163D01*
X118103837Y-100981342D01*
X118103838Y-100981344D01*
X118210047Y-101140297D01*
X118283205Y-101316916D01*
X118320500Y-101504413D01*
X118320500Y-101695587D01*
X118283205Y-101883084D01*
X118210047Y-102059703D01*
X118157302Y-102138641D01*
X118103837Y-102218658D01*
X117968658Y-102353837D01*
X117905302Y-102396170D01*
X117809703Y-102460047D01*
X117633084Y-102533205D01*
X117445587Y-102570500D01*
X117254413Y-102570500D01*
X117066916Y-102533205D01*
X116890297Y-102460047D01*
X116794698Y-102396170D01*
X116731342Y-102353837D01*
X116596163Y-102218658D01*
X116542698Y-102138641D01*
X116489953Y-102059703D01*
X116416795Y-101883084D01*
X116379500Y-101695587D01*
X116379500Y-101504413D01*
X116416795Y-101316916D01*
X116489953Y-101140297D01*
X116596162Y-100981344D01*
X116596163Y-100981342D01*
X116731342Y-100846163D01*
X116890296Y-100739954D01*
X116890297Y-100739953D01*
X117066916Y-100666795D01*
X117254413Y-100629500D01*
X117445587Y-100629500D01*
X117633084Y-100666795D01*
G37*
G36*
X133633084Y-100666795D02*
G01*
X133809703Y-100739953D01*
X133809704Y-100739954D01*
X133968658Y-100846163D01*
X134103837Y-100981342D01*
X134103838Y-100981344D01*
X134210047Y-101140297D01*
X134283205Y-101316916D01*
X134320500Y-101504413D01*
X134320500Y-101695587D01*
X134283205Y-101883084D01*
X134210047Y-102059703D01*
X134157302Y-102138641D01*
X134103837Y-102218658D01*
X133968658Y-102353837D01*
X133905302Y-102396170D01*
X133809703Y-102460047D01*
X133633084Y-102533205D01*
X133445587Y-102570500D01*
X133254413Y-102570500D01*
X133066916Y-102533205D01*
X132890297Y-102460047D01*
X132794698Y-102396170D01*
X132731342Y-102353837D01*
X132596163Y-102218658D01*
X132542698Y-102138641D01*
X132489953Y-102059703D01*
X132416795Y-101883084D01*
X132379500Y-101695587D01*
X132379500Y-101504413D01*
X132416795Y-101316916D01*
X132489953Y-101140297D01*
X132596162Y-100981344D01*
X132596163Y-100981342D01*
X132731342Y-100846163D01*
X132890296Y-100739954D01*
X132890297Y-100739953D01*
X133066916Y-100666795D01*
X133254413Y-100629500D01*
X133445587Y-100629500D01*
X133633084Y-100666795D01*
G37*
G36*
X155965000Y-100085000D02*
G01*
X153915000Y-100085000D01*
X153915000Y-98035000D01*
X155965000Y-98035000D01*
X155965000Y-100085000D01*
G37*
G36*
X145007290Y-98085619D02*
G01*
X145071689Y-98098429D01*
X145253678Y-98173811D01*
X145417463Y-98283249D01*
X145556751Y-98422537D01*
X145666189Y-98586322D01*
X145741571Y-98768311D01*
X145754381Y-98832710D01*
X145780000Y-98961507D01*
X145780000Y-99158493D01*
X145754381Y-99287290D01*
X145741571Y-99351689D01*
X145666189Y-99533678D01*
X145556751Y-99697463D01*
X145417463Y-99836751D01*
X145253678Y-99946189D01*
X145071689Y-100021571D01*
X145026799Y-100030500D01*
X144878493Y-100060000D01*
X144681507Y-100060000D01*
X144533201Y-100030500D01*
X144488311Y-100021571D01*
X144306322Y-99946189D01*
X144142537Y-99836751D01*
X144003249Y-99697463D01*
X143893811Y-99533678D01*
X143818429Y-99351689D01*
X143805619Y-99287290D01*
X143780000Y-99158493D01*
X143780000Y-98961507D01*
X143805619Y-98832710D01*
X143818429Y-98768311D01*
X143893811Y-98586322D01*
X144003249Y-98422537D01*
X144142537Y-98283249D01*
X144306322Y-98173811D01*
X144488311Y-98098429D01*
X144552710Y-98085619D01*
X144681507Y-98060000D01*
X144878493Y-98060000D01*
X145007290Y-98085619D01*
G37*
G36*
X141197290Y-98085619D02*
G01*
X141261689Y-98098429D01*
X141443678Y-98173811D01*
X141607463Y-98283249D01*
X141746751Y-98422537D01*
X141856189Y-98586322D01*
X141931571Y-98768311D01*
X141944381Y-98832710D01*
X141970000Y-98961507D01*
X141970000Y-99158493D01*
X141944381Y-99287290D01*
X141931571Y-99351689D01*
X141856189Y-99533678D01*
X141746751Y-99697463D01*
X141607463Y-99836751D01*
X141443678Y-99946189D01*
X141261689Y-100021571D01*
X141216799Y-100030500D01*
X141068493Y-100060000D01*
X140871507Y-100060000D01*
X140723201Y-100030500D01*
X140678311Y-100021571D01*
X140496322Y-99946189D01*
X140332537Y-99836751D01*
X140193249Y-99697463D01*
X140083811Y-99533678D01*
X140008429Y-99351689D01*
X139995619Y-99287290D01*
X139970000Y-99158493D01*
X139970000Y-98961507D01*
X139995619Y-98832710D01*
X140008429Y-98768311D01*
X140083811Y-98586322D01*
X140193249Y-98422537D01*
X140332537Y-98283249D01*
X140496322Y-98173811D01*
X140678311Y-98098429D01*
X140742710Y-98085619D01*
X140871507Y-98060000D01*
X141068493Y-98060000D01*
X141197290Y-98085619D01*
G37*
G36*
X133633084Y-98126795D02*
G01*
X133809703Y-98199953D01*
X133809704Y-98199954D01*
X133968658Y-98306163D01*
X134103837Y-98441342D01*
X134103838Y-98441344D01*
X134210047Y-98600297D01*
X134283205Y-98776916D01*
X134320500Y-98964413D01*
X134320500Y-99155587D01*
X134283205Y-99343084D01*
X134210047Y-99519703D01*
X134200709Y-99533678D01*
X134103837Y-99678658D01*
X133968658Y-99813837D01*
X133888641Y-99867302D01*
X133809703Y-99920047D01*
X133633084Y-99993205D01*
X133445587Y-100030500D01*
X133254413Y-100030500D01*
X133066916Y-99993205D01*
X132890297Y-99920047D01*
X132811359Y-99867302D01*
X132731342Y-99813837D01*
X132596163Y-99678658D01*
X132499291Y-99533678D01*
X132489953Y-99519703D01*
X132416795Y-99343084D01*
X132379500Y-99155587D01*
X132379500Y-98964413D01*
X132416795Y-98776916D01*
X132489953Y-98600297D01*
X132596162Y-98441344D01*
X132596163Y-98441342D01*
X132731342Y-98306163D01*
X132890296Y-98199954D01*
X132890297Y-98199953D01*
X133066916Y-98126795D01*
X133254413Y-98089500D01*
X133445587Y-98089500D01*
X133633084Y-98126795D01*
G37*
G36*
X117633084Y-98126795D02*
G01*
X117809703Y-98199953D01*
X117809704Y-98199954D01*
X117968658Y-98306163D01*
X118103837Y-98441342D01*
X118103838Y-98441344D01*
X118210047Y-98600297D01*
X118283205Y-98776916D01*
X118320500Y-98964413D01*
X118320500Y-99155587D01*
X118283205Y-99343084D01*
X118210047Y-99519703D01*
X118200709Y-99533678D01*
X118103837Y-99678658D01*
X117968658Y-99813837D01*
X117888641Y-99867302D01*
X117809703Y-99920047D01*
X117633084Y-99993205D01*
X117445587Y-100030500D01*
X117254413Y-100030500D01*
X117066916Y-99993205D01*
X116890297Y-99920047D01*
X116811359Y-99867302D01*
X116731342Y-99813837D01*
X116596163Y-99678658D01*
X116499291Y-99533678D01*
X116489953Y-99519703D01*
X116416795Y-99343084D01*
X116379500Y-99155587D01*
X116379500Y-98964413D01*
X116416795Y-98776916D01*
X116489953Y-98600297D01*
X116596162Y-98441344D01*
X116596163Y-98441342D01*
X116731342Y-98306163D01*
X116890296Y-98199954D01*
X116890297Y-98199953D01*
X117066916Y-98126795D01*
X117254413Y-98089500D01*
X117445587Y-98089500D01*
X117633084Y-98126795D01*
G37*
G36*
X144526963Y-93838130D02*
G01*
X144658982Y-93864390D01*
X144845520Y-93941656D01*
X145013400Y-94053830D01*
X145156170Y-94196600D01*
X145268344Y-94364480D01*
X145345610Y-94551018D01*
X145385000Y-94749046D01*
X145385000Y-94950954D01*
X145345610Y-95148982D01*
X145268344Y-95335520D01*
X145156170Y-95503400D01*
X145013400Y-95646170D01*
X144845520Y-95758344D01*
X144658982Y-95835610D01*
X144526963Y-95861870D01*
X144460955Y-95875000D01*
X144259045Y-95875000D01*
X144193037Y-95861870D01*
X144061018Y-95835610D01*
X143874480Y-95758344D01*
X143706600Y-95646170D01*
X143563830Y-95503400D01*
X143451656Y-95335520D01*
X143374390Y-95148982D01*
X143335000Y-94950954D01*
X143335000Y-94749046D01*
X143374390Y-94551018D01*
X143451656Y-94364480D01*
X143563830Y-94196600D01*
X143706600Y-94053830D01*
X143874480Y-93941656D01*
X144061018Y-93864390D01*
X144193037Y-93838130D01*
X144259045Y-93825000D01*
X144460955Y-93825000D01*
X144526963Y-93838130D01*
G37*
G36*
X147066963Y-93838130D02*
G01*
X147198982Y-93864390D01*
X147385520Y-93941656D01*
X147553400Y-94053830D01*
X147696170Y-94196600D01*
X147808344Y-94364480D01*
X147885610Y-94551018D01*
X147925000Y-94749046D01*
X147925000Y-94950954D01*
X147885610Y-95148982D01*
X147808344Y-95335520D01*
X147696170Y-95503400D01*
X147553400Y-95646170D01*
X147385520Y-95758344D01*
X147198982Y-95835610D01*
X147066963Y-95861870D01*
X147000955Y-95875000D01*
X146799045Y-95875000D01*
X146733037Y-95861870D01*
X146601018Y-95835610D01*
X146414480Y-95758344D01*
X146246600Y-95646170D01*
X146103830Y-95503400D01*
X145991656Y-95335520D01*
X145914390Y-95148982D01*
X145875000Y-94950954D01*
X145875000Y-94749046D01*
X145914390Y-94551018D01*
X145991656Y-94364480D01*
X146103830Y-94196600D01*
X146246600Y-94053830D01*
X146414480Y-93941656D01*
X146601018Y-93864390D01*
X146733037Y-93838130D01*
X146799045Y-93825000D01*
X147000955Y-93825000D01*
X147066963Y-93838130D01*
G37*
G36*
X141986963Y-93838130D02*
G01*
X142118982Y-93864390D01*
X142305520Y-93941656D01*
X142473400Y-94053830D01*
X142616170Y-94196600D01*
X142728344Y-94364480D01*
X142805610Y-94551018D01*
X142845000Y-94749046D01*
X142845000Y-94950954D01*
X142805610Y-95148982D01*
X142728344Y-95335520D01*
X142616170Y-95503400D01*
X142473400Y-95646170D01*
X142305520Y-95758344D01*
X142118982Y-95835610D01*
X141986963Y-95861870D01*
X141920955Y-95875000D01*
X141719045Y-95875000D01*
X141653037Y-95861870D01*
X141521018Y-95835610D01*
X141334480Y-95758344D01*
X141166600Y-95646170D01*
X141023830Y-95503400D01*
X140911656Y-95335520D01*
X140834390Y-95148982D01*
X140795000Y-94950954D01*
X140795000Y-94749046D01*
X140834390Y-94551018D01*
X140911656Y-94364480D01*
X141023830Y-94196600D01*
X141166600Y-94053830D01*
X141334480Y-93941656D01*
X141521018Y-93864390D01*
X141653037Y-93838130D01*
X141719045Y-93825000D01*
X141920955Y-93825000D01*
X141986963Y-93838130D01*
G37*
G36*
X139446963Y-93838130D02*
G01*
X139578982Y-93864390D01*
X139765520Y-93941656D01*
X139933400Y-94053830D01*
X140076170Y-94196600D01*
X140188344Y-94364480D01*
X140265610Y-94551018D01*
X140305000Y-94749046D01*
X140305000Y-94950954D01*
X140265610Y-95148982D01*
X140188344Y-95335520D01*
X140076170Y-95503400D01*
X139933400Y-95646170D01*
X139765520Y-95758344D01*
X139578982Y-95835610D01*
X139446963Y-95861870D01*
X139380955Y-95875000D01*
X139179045Y-95875000D01*
X139113037Y-95861870D01*
X138981018Y-95835610D01*
X138794480Y-95758344D01*
X138626600Y-95646170D01*
X138483830Y-95503400D01*
X138371656Y-95335520D01*
X138294390Y-95148982D01*
X138255000Y-94950954D01*
X138255000Y-94749046D01*
X138294390Y-94551018D01*
X138371656Y-94364480D01*
X138483830Y-94196600D01*
X138626600Y-94053830D01*
X138794480Y-93941656D01*
X138981018Y-93864390D01*
X139113037Y-93838130D01*
X139179045Y-93825000D01*
X139380955Y-93825000D01*
X139446963Y-93838130D01*
G37*
G36*
X136906963Y-93838130D02*
G01*
X137038982Y-93864390D01*
X137225520Y-93941656D01*
X137393400Y-94053830D01*
X137536170Y-94196600D01*
X137648344Y-94364480D01*
X137725610Y-94551018D01*
X137765000Y-94749046D01*
X137765000Y-94950954D01*
X137725610Y-95148982D01*
X137648344Y-95335520D01*
X137536170Y-95503400D01*
X137393400Y-95646170D01*
X137225520Y-95758344D01*
X137038982Y-95835610D01*
X136906963Y-95861870D01*
X136840955Y-95875000D01*
X136639045Y-95875000D01*
X136573037Y-95861870D01*
X136441018Y-95835610D01*
X136254480Y-95758344D01*
X136086600Y-95646170D01*
X135943830Y-95503400D01*
X135831656Y-95335520D01*
X135754390Y-95148982D01*
X135715000Y-94950954D01*
X135715000Y-94749046D01*
X135754390Y-94551018D01*
X135831656Y-94364480D01*
X135943830Y-94196600D01*
X136086600Y-94053830D01*
X136254480Y-93941656D01*
X136441018Y-93864390D01*
X136573037Y-93838130D01*
X136639045Y-93825000D01*
X136840955Y-93825000D01*
X136906963Y-93838130D01*
G37*
G36*
X149606963Y-93838130D02*
G01*
X149738982Y-93864390D01*
X149925520Y-93941656D01*
X150093400Y-94053830D01*
X150236170Y-94196600D01*
X150348344Y-94364480D01*
X150425610Y-94551018D01*
X150465000Y-94749046D01*
X150465000Y-94950954D01*
X150425610Y-95148982D01*
X150348344Y-95335520D01*
X150236170Y-95503400D01*
X150093400Y-95646170D01*
X149925520Y-95758344D01*
X149738982Y-95835610D01*
X149606963Y-95861870D01*
X149540955Y-95875000D01*
X149339045Y-95875000D01*
X149273037Y-95861870D01*
X149141018Y-95835610D01*
X148954480Y-95758344D01*
X148786600Y-95646170D01*
X148643830Y-95503400D01*
X148531656Y-95335520D01*
X148454390Y-95148982D01*
X148415000Y-94950954D01*
X148415000Y-94749046D01*
X148454390Y-94551018D01*
X148531656Y-94364480D01*
X148643830Y-94196600D01*
X148786600Y-94053830D01*
X148954480Y-93941656D01*
X149141018Y-93864390D01*
X149273037Y-93838130D01*
X149339045Y-93825000D01*
X149540955Y-93825000D01*
X149606963Y-93838130D01*
G37*
G36*
X152146963Y-93838130D02*
G01*
X152278982Y-93864390D01*
X152465520Y-93941656D01*
X152633400Y-94053830D01*
X152776170Y-94196600D01*
X152888344Y-94364480D01*
X152965610Y-94551018D01*
X153005000Y-94749046D01*
X153005000Y-94950954D01*
X152965610Y-95148982D01*
X152888344Y-95335520D01*
X152776170Y-95503400D01*
X152633400Y-95646170D01*
X152465520Y-95758344D01*
X152278982Y-95835610D01*
X152146963Y-95861870D01*
X152080955Y-95875000D01*
X151879045Y-95875000D01*
X151813037Y-95861870D01*
X151681018Y-95835610D01*
X151494480Y-95758344D01*
X151326600Y-95646170D01*
X151183830Y-95503400D01*
X151071656Y-95335520D01*
X150994390Y-95148982D01*
X150955000Y-94950954D01*
X150955000Y-94749046D01*
X150994390Y-94551018D01*
X151071656Y-94364480D01*
X151183830Y-94196600D01*
X151326600Y-94053830D01*
X151494480Y-93941656D01*
X151681018Y-93864390D01*
X151813037Y-93838130D01*
X151879045Y-93825000D01*
X152080955Y-93825000D01*
X152146963Y-93838130D01*
G37*
G36*
X154686963Y-93838130D02*
G01*
X154818982Y-93864390D01*
X155005520Y-93941656D01*
X155173400Y-94053830D01*
X155316170Y-94196600D01*
X155428344Y-94364480D01*
X155505610Y-94551018D01*
X155545000Y-94749046D01*
X155545000Y-94950954D01*
X155505610Y-95148982D01*
X155428344Y-95335520D01*
X155316170Y-95503400D01*
X155173400Y-95646170D01*
X155005520Y-95758344D01*
X154818982Y-95835610D01*
X154686963Y-95861870D01*
X154620955Y-95875000D01*
X154419045Y-95875000D01*
X154353037Y-95861870D01*
X154221018Y-95835610D01*
X154034480Y-95758344D01*
X153866600Y-95646170D01*
X153723830Y-95503400D01*
X153611656Y-95335520D01*
X153534390Y-95148982D01*
X153495000Y-94950954D01*
X153495000Y-94749046D01*
X153534390Y-94551018D01*
X153611656Y-94364480D01*
X153723830Y-94196600D01*
X153866600Y-94053830D01*
X154034480Y-93941656D01*
X154221018Y-93864390D01*
X154353037Y-93838130D01*
X154419045Y-93825000D01*
X154620955Y-93825000D01*
X154686963Y-93838130D01*
G37*
G36*
X157226963Y-93838130D02*
G01*
X157358982Y-93864390D01*
X157545520Y-93941656D01*
X157713400Y-94053830D01*
X157856170Y-94196600D01*
X157968344Y-94364480D01*
X158045610Y-94551018D01*
X158085000Y-94749046D01*
X158085000Y-94950954D01*
X158045610Y-95148982D01*
X157968344Y-95335520D01*
X157856170Y-95503400D01*
X157713400Y-95646170D01*
X157545520Y-95758344D01*
X157358982Y-95835610D01*
X157226963Y-95861870D01*
X157160955Y-95875000D01*
X156959045Y-95875000D01*
X156893037Y-95861870D01*
X156761018Y-95835610D01*
X156574480Y-95758344D01*
X156406600Y-95646170D01*
X156263830Y-95503400D01*
X156151656Y-95335520D01*
X156074390Y-95148982D01*
X156035000Y-94950954D01*
X156035000Y-94749046D01*
X156074390Y-94551018D01*
X156151656Y-94364480D01*
X156263830Y-94196600D01*
X156406600Y-94053830D01*
X156574480Y-93941656D01*
X156761018Y-93864390D01*
X156893037Y-93838130D01*
X156959045Y-93825000D01*
X157160955Y-93825000D01*
X157226963Y-93838130D01*
G37*
G36*
X159766963Y-93838130D02*
G01*
X159898982Y-93864390D01*
X160085520Y-93941656D01*
X160253400Y-94053830D01*
X160396170Y-94196600D01*
X160508344Y-94364480D01*
X160585610Y-94551018D01*
X160625000Y-94749046D01*
X160625000Y-94950954D01*
X160585610Y-95148982D01*
X160508344Y-95335520D01*
X160396170Y-95503400D01*
X160253400Y-95646170D01*
X160085520Y-95758344D01*
X159898982Y-95835610D01*
X159766963Y-95861870D01*
X159700955Y-95875000D01*
X159499045Y-95875000D01*
X159433037Y-95861870D01*
X159301018Y-95835610D01*
X159114480Y-95758344D01*
X158946600Y-95646170D01*
X158803830Y-95503400D01*
X158691656Y-95335520D01*
X158614390Y-95148982D01*
X158575000Y-94950954D01*
X158575000Y-94749046D01*
X158614390Y-94551018D01*
X158691656Y-94364480D01*
X158803830Y-94196600D01*
X158946600Y-94053830D01*
X159114480Y-93941656D01*
X159301018Y-93864390D01*
X159433037Y-93838130D01*
X159499045Y-93825000D01*
X159700955Y-93825000D01*
X159766963Y-93838130D01*
G37*
G36*
X162306963Y-93838130D02*
G01*
X162438982Y-93864390D01*
X162625520Y-93941656D01*
X162793400Y-94053830D01*
X162936170Y-94196600D01*
X163048344Y-94364480D01*
X163125610Y-94551018D01*
X163165000Y-94749046D01*
X163165000Y-94950954D01*
X163125610Y-95148982D01*
X163048344Y-95335520D01*
X162936170Y-95503400D01*
X162793400Y-95646170D01*
X162625520Y-95758344D01*
X162438982Y-95835610D01*
X162306963Y-95861870D01*
X162240955Y-95875000D01*
X162039045Y-95875000D01*
X161973037Y-95861870D01*
X161841018Y-95835610D01*
X161654480Y-95758344D01*
X161486600Y-95646170D01*
X161343830Y-95503400D01*
X161231656Y-95335520D01*
X161154390Y-95148982D01*
X161115000Y-94950954D01*
X161115000Y-94749046D01*
X161154390Y-94551018D01*
X161231656Y-94364480D01*
X161343830Y-94196600D01*
X161486600Y-94053830D01*
X161654480Y-93941656D01*
X161841018Y-93864390D01*
X161973037Y-93838130D01*
X162039045Y-93825000D01*
X162240955Y-93825000D01*
X162306963Y-93838130D01*
G37*
G36*
X164846963Y-93838130D02*
G01*
X164978982Y-93864390D01*
X165165520Y-93941656D01*
X165333400Y-94053830D01*
X165476170Y-94196600D01*
X165588344Y-94364480D01*
X165665610Y-94551018D01*
X165705000Y-94749046D01*
X165705000Y-94950954D01*
X165665610Y-95148982D01*
X165588344Y-95335520D01*
X165476170Y-95503400D01*
X165333400Y-95646170D01*
X165165520Y-95758344D01*
X164978982Y-95835610D01*
X164846963Y-95861870D01*
X164780955Y-95875000D01*
X164579045Y-95875000D01*
X164513037Y-95861870D01*
X164381018Y-95835610D01*
X164194480Y-95758344D01*
X164026600Y-95646170D01*
X163883830Y-95503400D01*
X163771656Y-95335520D01*
X163694390Y-95148982D01*
X163655000Y-94950954D01*
X163655000Y-94749046D01*
X163694390Y-94551018D01*
X163771656Y-94364480D01*
X163883830Y-94196600D01*
X164026600Y-94053830D01*
X164194480Y-93941656D01*
X164381018Y-93864390D01*
X164513037Y-93838130D01*
X164579045Y-93825000D01*
X164780955Y-93825000D01*
X164846963Y-93838130D01*
G37*
G36*
X167386963Y-93838130D02*
G01*
X167518982Y-93864390D01*
X167705520Y-93941656D01*
X167873400Y-94053830D01*
X168016170Y-94196600D01*
X168128344Y-94364480D01*
X168205610Y-94551018D01*
X168245000Y-94749046D01*
X168245000Y-94950954D01*
X168205610Y-95148982D01*
X168128344Y-95335520D01*
X168016170Y-95503400D01*
X167873400Y-95646170D01*
X167705520Y-95758344D01*
X167518982Y-95835610D01*
X167386963Y-95861870D01*
X167320955Y-95875000D01*
X167119045Y-95875000D01*
X167053037Y-95861870D01*
X166921018Y-95835610D01*
X166734480Y-95758344D01*
X166566600Y-95646170D01*
X166423830Y-95503400D01*
X166311656Y-95335520D01*
X166234390Y-95148982D01*
X166195000Y-94950954D01*
X166195000Y-94749046D01*
X166234390Y-94551018D01*
X166311656Y-94364480D01*
X166423830Y-94196600D01*
X166566600Y-94053830D01*
X166734480Y-93941656D01*
X166921018Y-93864390D01*
X167053037Y-93838130D01*
X167119045Y-93825000D01*
X167320955Y-93825000D01*
X167386963Y-93838130D01*
G37*
G36*
X170785000Y-95875000D02*
G01*
X168735000Y-95875000D01*
X168735000Y-93825000D01*
X170785000Y-93825000D01*
X170785000Y-95875000D01*
G37*
M02*
