G04 #@! TF.GenerationSoftware,KiCad,Pcbnew,(5.1.6)-1*
G04 #@! TF.CreationDate,2020-05-27T17:56:15-07:00*
G04 #@! TF.ProjectId,MKRShield_v1,4d4b5253-6869-4656-9c64-5f76312e6b69,0.1*
G04 #@! TF.SameCoordinates,Original*
G04 #@! TF.FileFunction,Copper,L1,Top*
G04 #@! TF.FilePolarity,Positive*
%FSLAX46Y46*%
G04 Gerber Fmt 4.6, Leading zero omitted, Abs format (unit mm)*
G04 Created by KiCad (PCBNEW (5.1.6)-1) date 2020-05-27 17:56:15*
%MOMM*%
%LPD*%
G01*
G04 APERTURE LIST*
G04 #@! TA.AperFunction,ComponentPad*
%ADD10O,1.600000X1.600000*%
G04 #@! TD*
G04 #@! TA.AperFunction,ComponentPad*
%ADD11C,1.600000*%
G04 #@! TD*
G04 #@! TA.AperFunction,ComponentPad*
%ADD12C,1.650000*%
G04 #@! TD*
G04 #@! TA.AperFunction,ComponentPad*
%ADD13R,1.650000X1.650000*%
G04 #@! TD*
G04 #@! TA.AperFunction,ComponentPad*
%ADD14C,1.755000*%
G04 #@! TD*
G04 #@! TA.AperFunction,ComponentPad*
%ADD15C,1.950000*%
G04 #@! TD*
G04 #@! TA.AperFunction,ComponentPad*
%ADD16R,1.950000X1.950000*%
G04 #@! TD*
G04 #@! TA.AperFunction,ComponentPad*
%ADD17C,1.541000*%
G04 #@! TD*
G04 #@! TA.AperFunction,Conductor*
%ADD18C,0.250000*%
G04 #@! TD*
G04 APERTURE END LIST*
D10*
X140970000Y-99060000D03*
D11*
X140970000Y-104140000D03*
D10*
X144780000Y-104140000D03*
D11*
X144780000Y-99060000D03*
D10*
X144780000Y-106680000D03*
D11*
X144780000Y-111760000D03*
D12*
X154940000Y-104140000D03*
X154940000Y-101600000D03*
D13*
X154940000Y-99060000D03*
D14*
X130810000Y-114300000D03*
X128270000Y-114300000D03*
D15*
X162560000Y-99060000D03*
X162560000Y-101600000D03*
X162560000Y-104140000D03*
X162560000Y-106680000D03*
D16*
X162560000Y-109220000D03*
D17*
X117350000Y-106680000D03*
X117350000Y-104140000D03*
X117350000Y-101600000D03*
X117350000Y-99060000D03*
X133350000Y-99060000D03*
X133350000Y-101600000D03*
X133350000Y-104140000D03*
X133350000Y-106680000D03*
D13*
X136690000Y-115150000D03*
D12*
X139230000Y-115150000D03*
X141770000Y-115150000D03*
X144310000Y-115150000D03*
X146850000Y-115150000D03*
X149390000Y-115150000D03*
X151930000Y-115150000D03*
X154470000Y-115150000D03*
X157010000Y-115150000D03*
X159550000Y-115150000D03*
X162090000Y-115150000D03*
X164630000Y-115150000D03*
X167170000Y-115150000D03*
X169710000Y-115150000D03*
X136740000Y-94850000D03*
X139280000Y-94850000D03*
X141820000Y-94850000D03*
X144360000Y-94850000D03*
X146900000Y-94850000D03*
X149440000Y-94850000D03*
X151980000Y-94850000D03*
X154520000Y-94850000D03*
X157060000Y-94850000D03*
X159600000Y-94850000D03*
X162140000Y-94850000D03*
X164680000Y-94850000D03*
X167220000Y-94850000D03*
D13*
X169760000Y-94850000D03*
D18*
X133350000Y-106680000D02*
X146050000Y-106680000D01*
X154940000Y-102546038D02*
X154940000Y-101600000D01*
X150806038Y-106680000D02*
X154940000Y-102546038D01*
X146050000Y-106680000D02*
X150806038Y-106680000D01*
X156160000Y-111760000D02*
X159550000Y-115150000D01*
X133350000Y-111760000D02*
X144780000Y-111760000D01*
X130810000Y-114300000D02*
X133350000Y-111760000D01*
X144780000Y-111760000D02*
X156210000Y-111760000D01*
X156210000Y-111810000D02*
X159550000Y-115150000D01*
X156210000Y-111760000D02*
X156210000Y-111810000D01*
X150310000Y-99060000D02*
X154520000Y-94850000D01*
X144780000Y-99060000D02*
X150310000Y-99060000D01*
X133727010Y-99437010D02*
X133350000Y-99437010D01*
X134402001Y-100112001D02*
X133727010Y-99437010D01*
X144780000Y-99060000D02*
X143727999Y-100112001D01*
X143727999Y-100112001D02*
X134402001Y-100112001D01*
X150310000Y-101600000D02*
X157060000Y-94850000D01*
X143510000Y-101600000D02*
X150310000Y-101600000D01*
X140970000Y-104140000D02*
X143510000Y-101600000D01*
X138430000Y-101600000D02*
X140970000Y-104140000D01*
X133350000Y-101600000D02*
X138430000Y-101600000D01*
X133350000Y-104140000D02*
X134402001Y-105192001D01*
X141820000Y-94830000D02*
X141820000Y-94850000D01*
X149860000Y-104140000D02*
X154940000Y-99060000D01*
X141820000Y-98210000D02*
X140970000Y-99060000D01*
X141820000Y-94850000D02*
X141820000Y-98210000D01*
X143727999Y-105192001D02*
X144780000Y-104140000D01*
X144780000Y-104140000D02*
X149860000Y-104140000D01*
X134402001Y-105192001D02*
X143727999Y-105192001D01*
X128270000Y-109220000D02*
X128270000Y-114300000D01*
X133350000Y-104140000D02*
X128270000Y-109220000D01*
X162560000Y-113080000D02*
X164630000Y-115150000D01*
X162560000Y-109220000D02*
X162560000Y-113080000D01*
X167170000Y-111290000D02*
X167170000Y-115150000D01*
X162560000Y-106680000D02*
X167170000Y-111290000D01*
X161315001Y-100355001D02*
X162560000Y-101600000D01*
X161315001Y-95674999D02*
X161315001Y-100355001D01*
X162140000Y-94850000D02*
X161315001Y-95674999D01*
X164680000Y-102020000D02*
X162560000Y-104140000D01*
X164680000Y-94850000D02*
X164680000Y-102020000D01*
X154940000Y-108000000D02*
X162090000Y-115150000D01*
X154940000Y-104140000D02*
X154940000Y-108000000D01*
M02*
