M48
METRIC,TZ
T1C0.800
T2C0.991
T3C1.100
T4C1.170
T5C1.300
%
G90
G05
T1
X144780Y-106680
X144780Y-111760
X144780Y-99060
X144780Y-104140
X140970Y-99060
X140970Y-104140
T2
X117350Y-99060
X117350Y-101600
X117350Y-104140
X117350Y-106680
X133350Y-99060
X133350Y-101600
X133350Y-104140
X133350Y-106680
T3
X154940Y-99060
X154940Y-101600
X154940Y-104140
X136690Y-115150
X139230Y-115150
X141770Y-115150
X144310Y-115150
X146850Y-115150
X149390Y-115150
X151930Y-115150
X154470Y-115150
X157010Y-115150
X159550Y-115150
X162090Y-115150
X164630Y-115150
X167170Y-115150
X169710Y-115150
X136740Y-94850
X139280Y-94850
X141820Y-94850
X144360Y-94850
X146900Y-94850
X149440Y-94850
X151980Y-94850
X154520Y-94850
X157060Y-94850
X159600Y-94850
X162140Y-94850
X164680Y-94850
X167220Y-94850
X169760Y-94850
T4
X128270Y-114300
X130810Y-114300
T5
X162560Y-99060
X162560Y-101600
X162560Y-104140
X162560Y-106680
X162560Y-109220
T0
M30
